<?xml version="1.0" encoding="iso-8859-1"?>
<!-- Generator: Adobe Illustrator 19.0.0, SVG Export Plug-In . SVG Version: 6.00 Build 0)  -->
<svg version="1.1" id="Capa_1" xmlns="http://www.w3.org/2000/svg" xmlns:xlink="http://www.w3.org/1999/xlink" x="0px" y="0px"
	 viewBox="0 0 512.002 512.002" style="enable-background:new 0 0 512.002 512.002;" xml:space="preserve">
<g>
	<g>
		<path d="M173.773,93.777l-33.218-33.217c-2.97-2.97-7.784-2.97-10.753,0L2.227,188.133C0.801,189.558,0,191.492,0,193.509
			c0,2.017,0.801,3.951,2.227,5.376l55.406,55.407c0.254,0.254,0.526,0.479,0.805,0.689l19.283,19.283
			c1.484,1.485,3.431,2.227,5.376,2.227c1.946,0,3.892-0.742,5.377-2.227c2.97-2.97,2.97-7.783,0-10.753l-14.936-14.937
			l78.448-78.448c2.97-2.97,2.97-7.784,0-10.753c-2.97-2.97-7.784-2.97-10.753,0L62.727,237.88l-44.37-44.37L135.178,76.689
			l27.842,27.841c2.97,2.97,7.784,2.97,10.753,0C176.742,101.56,176.742,96.745,173.773,93.777z"/>
	</g>
</g>
<g>
	<g>
		<path d="M392.197,310.168L242.549,160.523c-1.426-1.426-3.37-2.227-5.387-2.227h-51.677c-7.301,0-13.711-4.653-15.964-11.614
			c-0.54-1.643-0.815-3.378-0.815-5.155c0-4.481,1.746-8.691,4.92-11.858c3.167-3.167,7.379-4.911,11.859-4.911h61.988
			c4.199,0,7.604-3.405,7.604-7.604s-3.405-7.604-7.604-7.604h-61.988c-8.542,0-16.573,3.325-22.606,9.359
			c-6.049,6.036-9.38,14.068-9.38,22.618c0,3.396,0.53,6.73,1.565,9.875c4.279,13.221,16.505,22.102,30.422,22.102h48.538
			l147.417,147.419c5.894,5.894,5.894,15.483,0,21.375c-2.859,2.859-6.659,4.435-10.702,4.435c-4,0-7.769-1.555-10.627-4.38
			c-0.018-0.019-0.036-0.039-0.054-0.057l-81.994-81.993c-2.971-2.97-7.784-2.97-10.754,0c-2.97,2.97-2.97,7.784,0,10.753
			l25.577,25.576c0.012,0.012,0.023,0.026,0.035,0.04l56.342,56.341c0.018,0.019,0.036,0.038,0.056,0.056
			c0.005,0.005,0.01,0.009,0.014,0.014c5.862,5.897,5.854,15.462-0.029,21.346c-5.896,5.894-15.486,5.894-21.38,0l-81.994-81.994
			c-2.97-2.97-7.784-2.97-10.753,0c-2.97,2.97-2.97,7.784,0,10.753l25.605,25.605c0.003,0.003,0.005,0.006,0.008,0.009l56.38,56.38
			c5.895,5.895,5.895,15.485,0,21.379c-2.855,2.855-6.652,4.429-10.689,4.429c-4.035,0-7.828-1.57-10.682-4.421
			c-0.002-0.002-0.004-0.004-0.006-0.006l-81.997-81.997c-2.969-2.97-7.783-2.97-10.753,0c-2.97,2.97-2.97,7.784,0,10.753
			l25.596,25.596c0.006,0.007,0.012,0.014,0.018,0.02l56.379,56.379c0.005,0.005,0.01,0.009,0.015,0.014
			c2.847,2.854,4.415,6.645,4.415,10.676c0,4.037-1.572,7.834-4.429,10.689c-2.852,2.853-6.647,4.423-10.685,4.423
			c-4.043,0-7.84-1.57-10.693-4.423L104.443,279.478c-2.969-2.971-7.783-2.97-10.753,0s-2.97,7.784,0,10.753l20.735,20.735
			c-4.767,5.505-7.376,12.456-7.376,19.812c0,8.1,3.154,15.715,8.882,21.443c5.727,5.728,13.343,8.882,21.443,8.882
			c0.627,0,1.25-0.025,1.871-0.063c-0.037,0.62-0.063,1.244-0.063,1.871c0,8.101,3.154,15.716,8.882,21.443
			c5.727,5.727,13.343,8.882,21.443,8.882c0.628,0,1.25-0.025,1.871-0.063c-0.038,0.62-0.063,1.244-0.063,1.871
			c0,8.1,3.154,15.715,8.882,21.443c5.727,5.728,13.343,8.882,21.443,8.882c0.627,0,1.248-0.025,1.869-0.063
			c-0.038,0.62-0.063,1.244-0.063,1.871c0,8.1,3.154,15.715,8.882,21.443c5.725,5.725,13.338,8.878,21.439,8.878
			c7.368,0,14.328-2.614,19.834-7.388c5.639,5.3,12.967,8.214,20.751,8.214c8.101,0,15.715-3.153,21.439-8.878
			c5.728-5.727,8.883-13.343,8.883-21.443c0-0.628-0.025-1.25-0.063-1.871c0.62,0.038,1.243,0.063,1.87,0.063
			c8.1,0,15.716-3.155,21.443-8.882c6.391-6.391,9.32-14.948,8.802-23.331c0.629,0.039,1.257,0.065,1.887,0.065
			c7.765-0.001,15.532-2.956,21.444-8.868c6.385-6.385,9.315-14.932,8.804-23.306c0.623,0.039,1.248,0.064,1.877,0.064
			c8.104,0,15.724-3.156,21.456-8.889C404.02,341.228,404.02,321.991,392.197,310.168z M137.375,345.897
			c-4.039,0-7.835-1.574-10.691-4.429c-2.855-2.855-4.428-6.652-4.428-10.689c0-3.287,1.057-6.405,2.986-8.995l21.127,21.127
			C143.78,344.839,140.662,345.897,137.375,345.897z M169.508,378.03c-4.037,0-7.834-1.571-10.69-4.428
			c-2.855-2.855-4.429-6.652-4.429-10.69c0-3.287,1.057-6.405,2.986-8.994l21.127,21.127
			C175.912,376.972,172.794,378.03,169.508,378.03z M201.641,410.165c-4.038-0.001-7.834-1.574-10.69-4.43
			c-2.855-2.855-4.428-6.652-4.428-10.689c0-3.287,1.057-6.405,2.985-8.994l21.127,21.127
			C208.045,409.107,204.928,410.165,201.641,410.165z M233.768,442.293c-4.038,0-7.832-1.571-10.685-4.424
			c-2.856-2.856-4.429-6.652-4.429-10.689c0-3.287,1.057-6.406,2.987-8.995l21.126,21.126
			C240.179,441.237,237.059,442.293,233.768,442.293z"/>
	</g>
</g>
<g>
	<g>
		<path d="M509.774,183.476L382.199,55.903c-2.971-2.97-7.784-2.97-10.754,0l-53.646,53.646h-45.992c-4.2,0-7.604,3.405-7.604,7.604
			s3.404,7.604,7.604,7.604h46.448l119.656,119.657l-45.996,46.006c-2.97,2.97-2.97,7.784,0.001,10.753
			c1.485,1.484,3.431,2.226,5.377,2.226c1.947,0,3.892-0.742,5.378-2.227L509.776,194.23c1.425-1.425,2.226-3.36,2.226-5.376
			C512.002,186.837,511.199,184.902,509.774,183.476z M448.75,233.745l-116.819-116.82l44.892-44.892l116.82,116.82L448.75,233.745z
			"/>
	</g>
</g>
<g>
</g>
<g>
</g>
<g>
</g>
<g>
</g>
<g>
</g>
<g>
</g>
<g>
</g>
<g>
</g>
<g>
</g>
<g>
</g>
<g>
</g>
<g>
</g>
<g>
</g>
<g>
</g>
<g>
</g>
</svg>
