<svg id="Capa_1" enable-background="new 0 0 512.002 512.002" height="512" viewBox="0 0 512.002 512.002" width="512" xmlns="http://www.w3.org/2000/svg"><g><path d="m256.001 512.002c141.492 0 256.001-114.497 256.001-256.001 0-141.492-114.497-256.001-256.001-256.001-141.492 0-256.001 114.497-256.001 256.001 0 141.492 114.497 256.001 256.001 256.001zm0-497.002c132.889 0 241.001 108.113 241.001 241.001s-108.112 241.001-241.001 241.001-241.001-108.113-241.001-241.001 108.112-241.001 241.001-241.001z"/><path d="m64.498 159.009c3.625 2.003 8.188.688 10.191-2.938 7.233-13.094 15.767-25.2 25.382-36.203h26.174c-5.334 9.299-10.165 19.238-14.414 29.771-1.55 3.841.308 8.211 4.149 9.761 3.841 1.549 8.211-.308 9.761-4.15 5.155-12.779 11.206-24.608 18.002-35.382h51.998c-2.498 9.799-4.733 20.254-6.664 31.283-.714 4.08 2.015 7.966 6.095 8.681 4.077.715 7.966-2.015 8.681-6.095 2.181-12.463 4.659-23.739 7.353-33.869h89.589c2.693 10.13 5.171 21.406 7.353 33.869.715 4.083 4.603 6.809 8.681 6.095 4.08-.714 6.809-4.601 6.095-8.681-1.93-11.029-4.166-21.484-6.664-31.283h51.998c6.796 10.773 12.847 22.604 18.003 35.382 1.55 3.84 5.918 5.699 9.761 4.149 3.842-1.549 5.699-5.92 4.149-9.761-4.249-10.533-9.08-20.471-14.414-29.77h26.173c9.615 11.002 18.149 23.109 25.382 36.203 2.003 3.625 6.564 4.942 10.191 2.938 3.626-2.003 4.941-6.565 2.939-10.191-39.12-70.822-113.626-114.817-194.441-114.817s-155.321 43.995-194.442 114.817c-2.002 3.626-.687 8.188 2.939 10.191zm332.929-54.141h-21.091c-9.521-13.857-20.267-25.946-31.951-36.023 19.389 9.163 37.3 21.306 53.042 36.023zm-39.635 0h-45.714c-5.209-17.031-12.848-36.589-23.535-50.849 25.952 8.099 49.867 25.73 69.249 50.849zm-101.791-55.867c12.411 0 27.986 17.612 40.388 55.867h-80.776c12.402-38.255 27.977-55.867 40.388-55.867zm-32.542 5.018c-10.684 14.256-18.322 33.808-23.535 50.849h-45.714c19.382-25.119 43.297-42.75 69.249-50.849zm-55.842 14.826c-11.683 10.078-22.43 22.166-31.95 36.023h-21.091c15.741-14.717 33.651-26.86 53.041-36.023z"/><path d="m256.001 478.001c80.815 0 155.321-43.995 194.442-114.817 2.002-3.626.687-8.188-2.939-10.191-3.625-2.003-8.188-.688-10.191 2.938-7.233 13.094-15.767 25.2-25.382 36.203h-26.173c5.334-9.299 10.165-19.237 14.414-29.77 1.55-3.841-.308-8.212-4.149-9.761-3.844-1.551-8.211.308-9.761 4.149-5.155 12.779-11.207 24.609-18.003 35.382h-51.999c2.498-9.799 4.733-20.254 6.664-31.283.714-4.08-2.015-7.966-6.095-8.681-4.077-.713-7.966 2.014-8.681 6.095-2.181 12.463-4.659 23.739-7.353 33.869h-89.589c-2.693-10.13-5.171-21.406-7.353-33.869-.714-4.08-4.589-6.812-8.681-6.095-4.08.714-6.809 4.601-6.095 8.681 1.93 11.029 4.166 21.484 6.664 31.283h-51.998c-6.796-10.773-12.847-22.603-18.002-35.382-1.55-3.842-5.92-5.7-9.761-4.15-3.842 1.55-5.699 5.92-4.149 9.761 4.249 10.533 9.08 20.471 14.414 29.771h-26.174c-9.615-11.002-18.149-23.109-25.382-36.203-2.003-3.625-6.565-4.941-10.191-2.938s-4.941 6.565-2.939 10.191c39.121 70.822 113.627 114.817 194.442 114.817zm120.335-70.867h21.091c-15.741 14.718-33.652 26.86-53.042 36.023 11.684-10.077 22.43-22.166 31.951-36.023zm-64.259 0h45.714c-19.382 25.12-43.297 42.75-69.249 50.849 10.684-14.256 18.323-33.808 23.535-50.849zm-15.688 0c-12.403 38.255-27.978 55.867-40.388 55.867s-27.986-17.612-40.388-55.867zm-96.464 0c5.209 17.031 12.848 36.589 23.535 50.849-25.952-8.099-49.867-25.729-69.249-50.849zm-64.258 0c9.52 13.857 20.267 25.946 31.95 36.023-19.389-9.163-37.3-21.306-53.042-36.023z"/><path d="m94.292 193.924v124.154c0 12.407 10.094 22.5 22.5 22.5s22.5-10.093 22.5-22.5v-124.154c0-12.407-10.094-22.5-22.5-22.5s-22.5 10.094-22.5 22.5zm30 0v124.154c0 4.136-3.364 7.5-7.5 7.5s-7.5-3.364-7.5-7.5v-124.154c0-4.136 3.364-7.5 7.5-7.5s7.5 3.365 7.5 7.5z"/><path d="m226.388 323.323c-3.962 1.208-6.194 5.399-4.986 9.361 1.205 3.954 5.389 6.196 9.361 4.986 24.574-7.493 41.085-28.084 41.085-51.24 0-15.432-7.218-29.466-18.895-38.674 10.617-1.8 18.729-11.063 18.729-22.184 0-29.857-27.225-54.147-60.688-54.147s-60.689 24.291-60.689 54.147c0 15.432 7.217 29.467 18.895 38.675-10.617 1.799-18.729 11.062-18.729 22.184 0 23.076 16.436 43.646 40.896 51.184 3.955 1.217 8.155-1 9.376-4.958s-1-8.157-4.958-9.376c-18.132-5.587-30.314-20.396-30.314-36.849 0-4.135 3.364-7.5 7.5-7.5s7.5 3.365 7.5 7.5c0 13.315 13.768 24.147 30.689 24.147s30.688-10.833 30.688-24.147c0-9.17-6.361-16.858-15.829-19.13l-33.386-8.013c-16.091-3.861-27.329-17.726-27.329-33.716 0-21.586 20.496-39.147 45.689-39.147 25.192 0 45.688 17.562 45.688 39.147 0 4.136-3.364 7.5-7.5 7.5s-7.5-3.364-7.5-7.5c0-13.315-13.767-24.147-30.688-24.147s-30.689 10.833-30.689 24.147c0 9.171 6.361 16.858 15.829 19.13l33.386 8.013c16.091 3.861 27.329 17.726 27.329 33.716 0 16.51-12.242 31.336-30.46 36.891zm-3.869-41.437c1.016.244 4.329 1.292 4.329 4.544 0 4.23-6.854 9.147-15.688 9.147-8.836 0-15.689-4.917-15.689-9.147 0-4.343-1.237-8.404-3.378-11.847zm-22.886-51.77c-1.016-.244-4.329-1.292-4.329-4.544 0-4.23 6.854-9.147 15.689-9.147s15.688 4.917 15.688 9.147c0 4.344 1.237 8.404 3.378 11.846z"/><path d="m347.823 201.424c-22.252 0-40.354 24.483-40.354 54.577s18.103 54.577 40.354 54.577 40.354-24.483 40.354-54.577-18.102-54.577-40.354-54.577zm0 94.154c-13.507 0-25.354-18.494-25.354-39.577s11.848-39.577 25.354-39.577 25.354 18.494 25.354 39.577-11.847 39.577-25.354 39.577z"/><path d="m410.424 245.871c4.07-.769 6.747-4.691 5.979-8.761-7.303-38.675-35.504-65.686-68.579-65.686-40.47 0-70.354 39.26-70.354 84.577 0 45.342 29.907 84.577 70.354 84.577 33.077 0 61.278-27.011 68.58-65.685.769-4.07-1.908-7.993-5.979-8.761s-7.993 1.908-8.762 5.979c-5.942 31.48-28.083 53.467-53.84 53.467-30.522 0-55.354-31.212-55.354-69.577s24.832-69.577 55.354-69.577c25.755 0 47.895 21.987 53.839 53.469.769 4.071 4.7 6.749 8.762 5.978z"/></g></svg>