<svg height="511pt" viewBox="-43 0 511 511.99968" width="511pt" xmlns="http://www.w3.org/2000/svg"><path d="m360.945312 356.019531c8.851563-1.855469 16.585938-6.363281 19.882813-15.15625 3.164063-8.425781 1.332031-17.449219 1.4375-26.175781.105469-8.769531 5.957031-10.40625 13.125-14.152344 7.617187-3.980468 15.636719-8.679687 18.742187-17.191406 3.289063-9.117188-.558593-18.265625-4.035156-26.671875-1.339844-3.230469-3.835937-7.457031-3.753906-11.058594.070312-3.234375 2.738281-5.789062 4.761719-8.09375 11.160156-12.722656 21.992187-25.589843 10.449219-42.144531-3.894532-5.578125-12.84375-11.324219-14.8125-17.855469-1.988282-6.589843 5.066406-16.515625 6.945312-22.664062 2.84375-9.300781 2.058594-18.648438-5.0625-25.777344-5.75-5.761719-13.515625-8.492187-20.386719-12.566406-7.578125-4.488281-5.988281-10.644531-5.664062-18.667969.339843-8.472656.265625-17.613281-5.492188-24.476562-5.34375-6.375-13.574219-8.324219-21.445312-9.472657-6.886719-1.007812-15.160157-.144531-18.449219-7.21875-7.128906-15.347656-8.171875-34.660156-30.285156-33.941406-7.878906.257813-15.710938 4.296875-23.523438 3.980469-7.320312-.296875-11.792968-10.558594-16.125-15.574219-4.941406-5.722656-11.09375-10.632813-18.933594-11.1015625-10.195312-.6132815-18.496093 6.1679685-26.714843 11.1210935-7.578125 4.570313-10.542969 3.378906-17.820313-1.183594-8.195312-5.144531-16.9375-11.441406-27.191406-9.660156-7.5625 1.316406-13.15625 6.660156-17.832031 12.367188-4.597657 5.613281-8.398438 14.722656-16.675781 13.855468-8.085938-.84375-15.742188-4.113281-23.996094-3.820312-10.039063.359375-17.253906 6.183594-21.390625 15.046875-3.015625 6.460937-3.558594 14.535156-7.335938 20.550781-3.769531 6.015625-14.332031 4.902344-20.648437 6.039063-7.679688 1.382812-15.285156 4.03125-19.84375 10.789062-4.921875 7.296875-4.410156 16.390625-4.046875 24.773438.148437 3.460937 1.035156 8.226562-.25 11.550781-1.1875 3.074219-4.597657 4.550781-7.339844 6.054688-6.925781 3.796874-14.648437 6.867187-19.925781 13-6.722656 7.820312-6.132813 17.519531-2.890625 26.71875 2.140625 6.074218 8.789062 15.144531 5.386719 21.554687-4.324219 8.148437-13.121094 13.132813-17.128907 21.75-3.980469 8.566406-2.226562 17.324219 3.058594 24.902344 3.890625 5.578125 14.519531 12.589843 15.210937 19.542969.371094 3.75-2.363281 8.335937-3.746093 11.683593-2.214844 5.347657-4.644531 10.796875-5.179688 16.632813-.941406 10.304687 4.644531 18.011718 12.945313 23.335937 5.925781 3.804688 18.246094 6.671875 19.882812 14.226563 1.894532 8.753906-1.460937 18.035156.691406 26.957031 2.515626 10.441406 10.742188 16.078125 20.835938 18.195313l-58.015625 100.496093c-3.835937 6.625 1.296875 15.203125 8.929687 14.992188l43.847657-1.132813 16.960937 35.890625c3.378906 7.175781 13.769532 7.582031 17.722656.71875l59.558594-103.195312c6.464844 8.535156 14.191406 17.53125 25.921875 16.972656 6.265625-.300781 11.921875-3.304687 17.164063-6.511719 4.082031-2.496094 9.609375-7.699218 14.558594-8.035156 4.574218-.3125 9.496093 4.027344 13.144531 6.34375 5.402343 3.433594 11.089843 7.03125 17.542969 7.996094 12.734374 1.898437 21.25-7.578125 28.207031-16.765625l59.558593 103.195312c1.78125 3.101563 5.09375 5.011719 8.667969 5.011719h.070313c3.605468-.03125 6.921875-1.992188 8.683594-5.128906l19.875-35.621094c13.832031.082031 27.664062.171875 41.492187.25 7.519531 0 12.464844-8.433594 8.671875-14.988281zm-272.914062 124.421875-11.574219-24.5c-1.652343-3.5-5.1875-5.730468-9.050781-5.730468-10.929688.199218-21.855469.558593-32.78125.839843l52.617188-91.148437c3.71875 2 4.921874 10.238281 6.054687 13.828125 1.773437 5.628906 3.710937 11.457031 7.503906 16.101562 9.464844 11.59375 23.808594 7.992188 36.464844 5.308594zm179.761719-101.640625c-4.644531 3.472657-8.117188 8.050781-11.613281 12.609375-1.960938 2.558594-5.410157 8.84375-8.941407 9.402344-3.046875.480469-7.507812-3.339844-9.878906-4.835938-4.785156-3.027343-9.507813-6.3125-14.890625-8.207031-11.679688-4.113281-21.503906 1.21875-31.261719 7.390625-2.542969 1.609375-7.023437 5.664063-10.253906 5.582032-3.78125-.09375-6.714844-5.265626-8.8125-7.972657-6.734375-8.703125-13.355469-17.648437-25.246094-18.589843-5.195312-.410157-10.375.652343-15.425781 1.75-3.691406.804687-8.585938 2.742187-12.34375 2.207031-6.78125-.964844-8.128906-15.960938-10.480469-21.535157-4.644531-11.027343-13.042969-16.320312-24.648437-18.179687-5.007813 0-17.398438-.570313-19.125-5.894531-1.117188-3.449219-.144532-8.121094.003906-11.6875.226562-5.464844.488281-11.082032-.914062-16.429688-2.523438-9.644531-10.226563-15.007812-18.59375-19.441406-3.628907-1.921875-8.1875-3.570312-11.28125-6.320312-3.003907-2.667969-2.039063-4.769532-.765626-8.410157 3.445313-9.828125 9.582032-19.554687 7.09375-30.390625-2.273437-9.882812-10.523437-16.242187-16.613281-23.765625-2.132812-2.632812-3.925781-4.503906-2.601562-7.804687 1.484375-3.710938 5.710937-7.019532 8.378906-9.949219 7.453125-8.1875 13.019531-16.683594 10.808594-28.222656-1.015625-5.300781-3.324219-10.25-5.363281-15.207031-1.078126-2.621094-4.042969-7.707032-3.035157-10.582032.960938-2.746094 6.058594-4.644531 8.425781-5.902344 4.296876-2.285156 8.746094-4.332031 12.726563-7.15625 8.558594-6.074218 11.773437-14.457031 11.910156-24.738281.082031-6.175781-3.46875-18.660156 3.238281-21.601562 8.675782-3.800781 19.023438-1.570313 27.777344-6.070313 9.152344-4.710937 12.609375-13.867187 15.519532-23.132812 1.070312-3.40625 1.769531-8.128906 3.988281-10.964844 2.308593-2.960938 5.300781-2.027344 8.785156-1.394531 10.210937 1.847656 20.980469 5.839843 31.046875 1.125 8.519531-3.992188 13.316406-12.484375 19.105469-19.425781 2.050781-2.457032 3.765625-5.074219 7.050781-4.769532 3.671875.339844 8.4375 4.644532 11.449219 6.546875 9.128906 5.769531 18.652343 10.078125 29.453125 6.230469 4.554687-1.625 8.660156-4.238281 12.71875-6.8125 2.914062-1.847656 7.015625-5.621094 10.546875-5.960938 6.195312-.589843 12.265625 11.921876 16.015625 16.082032 7.601562 8.429687 16.496094 11.460937 27.753906 9.75 5.503906-.835938 18.210938-6.539063 22.226562-1.371094 5.199219 6.695312 5.089844 17.527344 9.640626 24.898438 5.757812 9.328124 15.53125 11.914062 25.785156 13.308593 3.824218.519531 8.21875.554688 11.847656 1.972657 4.132812 1.613281 3.6875 4.421874 3.664062 8.664062-.046874 9.683594-1.976562 20.160156 3.144532 29 4.589844 7.925781 13.339844 11.707031 21.070312 15.820312 2.53125 1.347657 7.59375 3.296876 8.476563 6.351563.878906 3.050781-2.269531 8.132813-3.394531 10.867187-4.238282 10.296876-8.316407 20.773438-2.765626 31.4375 4.082032 7.839844 13.675782 13.1875 16.894532 21.207032 2.554687 6.371094-9.035156 14.558594-12.644532 19.121094-7.464843 9.433593-8.519531 19.125-4.484374 30.378906 2.132812 5.941406 10.03125 16.554687 3.546874 21.375-7.296874 5.425781-16.488281 7.613281-23.003906 14.273437-7.320312 7.484375-7.496094 17.585938-7.082031 27.414063.140625 3.339844 1.328125 9.1875-.136719 12.320312-1.515625 3.234375-5.296875 3.296875-8.65625 3.839844-8.929687 1.4375-18.703125 1.578125-26.195312 7.335938-7.636719 5.867187-9.941406 15.40625-12.761719 24.109374-.832031 2.558594-1.816406 7.941407-4.34375 9.378907-2.671875 1.515625-8.246094-.507813-11.035156-1.109375-10.6875-2.308594-21.921875-4.941406-31.5 2.085937-.160157.121094 1.921875-1.410156 0 0zm95.175781 72.410157h-.0625c-3.625 0-6.976562 1.957031-8.75 5.128906l-14.15625 25.378906-49.964844-86.578125c15.765625 3.34375 31.667969 5.722656 40.125-11.191406 3.253906-6.511719 4.101563-13.957031 7.304688-20.445313.699218-1.414062 1.269531-2.730468 2.601562-3.613281l52.808594 91.5zm0 0"/><path d="m213.648438 342.675781c-72.917969 0-132.242188-59.335937-132.242188-132.265625 0-72.929687 59.324219-132.261718 132.242188-132.261718 72.917968 0 132.238281 59.332031 132.238281 132.261718 0 72.929688-59.320313 132.265625-132.238281 132.265625zm0-244.527343c-61.875 0-112.214844 50.359374-112.214844 112.261718s50.339844 112.265625 112.214844 112.265625 112.214843-50.363281 112.214843-112.265625-50.339843-112.261718-112.214843-112.261718zm0 0"/><path d="m182.121094 266.21875c-2.65625 0-5.203125-1.054688-7.082032-2.929688l-28.660156-28.632812c-3.910156-3.90625-3.910156-10.234375 0-14.140625s10.25-3.902344 14.160156 0l21.582032 21.558594 84.632812-84.542969c3.910156-3.90625 10.25-3.90625 14.160156 0 3.910157 3.90625 3.914063 10.234375.003907 14.140625l-91.71875 91.617187c-1.875 1.875-4.421875 2.929688-7.078125 2.929688zm0 0"/><path d="m88.273438 432.238281c-5.527344 0-10.015626-4.476562-10.015626-10 0-5.519531 4.476563-10 10.007813-10h.007813c5.53125 0 10.015624 4.480469 10.015624 10 0 5.523438-4.484374 10-10.015624 10zm0 0"/></svg>