<?xml version="1.0"?>
<svg xmlns="http://www.w3.org/2000/svg" id="Icons" viewBox="0 0 74 74" width="512" height="512"><path d="M55,72H19a5.006,5.006,0,0,1-5-5V7a5.006,5.006,0,0,1,5-5H55a5.006,5.006,0,0,1,5,5V67A5.006,5.006,0,0,1,55,72ZM19,4a3,3,0,0,0-3,3V67a3,3,0,0,0,3,3H55a3,3,0,0,0,3-3V7a3,3,0,0,0-3-3Z"/><path d="M59,12H15a1,1,0,0,1,0-2H59a1,1,0,0,1,0,2Z"/><path d="M59,60H15a1,1,0,0,1,0-2H59a1,1,0,0,1,0,2Z"/><path d="M39.5,68h-5a3,3,0,0,1,0-6h5a3,3,0,0,1,0,6Zm-5-4a1,1,0,0,0,0,2h5a1,1,0,0,0,0-2Z"/><path d="M41.5,8h-9a1,1,0,0,1,0-2h9a1,1,0,0,1,0,2Z"/><path d="M33.5,49a1,1,0,0,1-.648-.239C32.365,48.349,21.013,38.6,20.52,31.418a7.773,7.773,0,0,1,2.106-5.89A7.865,7.865,0,0,1,28.338,23,7.487,7.487,0,0,1,33.5,25.091,7.491,7.491,0,0,1,38.657,23a7.918,7.918,0,0,1,7.795,7.081,1,1,0,0,1-1.99.2,5.9,5.9,0,0,0-5.8-5.28,5.589,5.589,0,0,0-4.376,2.19,1.035,1.035,0,0,1-1.568,0A5.589,5.589,0,0,0,28.338,25a5.856,5.856,0,0,0-4.249,1.893,5.79,5.79,0,0,0-1.573,4.389C22.89,36.729,31.106,44.51,33.5,46.667c.644-.578,1.707-1.56,2.918-2.789a1,1,0,1,1,1.424,1.4c-2.037,2.067-3.629,3.423-3.7,3.48A1,1,0,0,1,33.5,49Z"/><path d="M42.5,51a1,1,0,0,1-.648-.239c-.405-.345-9.915-8.518-10.337-14.564h0a6.642,6.642,0,0,1,1.8-5.036A6.72,6.72,0,0,1,38.192,29a6.414,6.414,0,0,1,4.3,1.682A6.419,6.419,0,0,1,46.8,29a6.72,6.72,0,0,1,4.881,2.16,6.642,6.642,0,0,1,1.8,5.036c-.424,6.047-9.933,14.22-10.338,14.565A1,1,0,0,1,42.5,51ZM33.508,36.057c.279,4,6.078,10,8.989,12.613,2.91-2.619,8.711-8.613,8.99-12.613a4.657,4.657,0,0,0-1.266-3.532A4.713,4.713,0,0,0,46.8,31a4.524,4.524,0,0,0-3.524,1.76,1,1,0,0,1-.781.376h0a1,1,0,0,1-.782-.376A4.517,4.517,0,0,0,38.192,31a4.713,4.713,0,0,0-3.419,1.525,4.658,4.658,0,0,0-1.266,3.532Z"/></svg>
