<svg id="Capa_1" enable-background="new 0 0 512 512" height="512" viewBox="0 0 512 512" width="512" xmlns="http://www.w3.org/2000/svg"><g><path id="XMLID_308_" d="m509.936 161.914c-1.891-2.49-4.838-3.953-7.965-3.953h-43.943v-147.961c0-5.523-4.477-10-10-10h-138c-5.523 0-10 4.477-10 10v67.96h-88c-5.523 0-10 4.477-10 10v70h-56.161l-23.604-77.305c-4.137-13.551-16.436-22.655-30.604-22.655h-81.63c-5.523 0-10 4.477-10 10v44c0 5.523 4.477 10 10 10h57.943l94.452 309.345c4.137 13.551 16.436 22.655 30.604 22.655h5.752c-3.153 5.626-4.959 12.105-4.959 19 0 21.505 17.495 39 39 39s39-17.495 39-39c0-6.895-1.806-13.374-4.959-19h92.029c-3.153 5.626-4.959 12.105-4.959 19 0 21.505 17.495 39 39 39s39-17.495 39-39c0-6.895-1.806-13.374-4.959-19h21.055c5.523 0 10-4.477 10-10v-44c0-5.523-4.477-10-10-10h-231.312l-8.561-28.04h242.483c4.488 0 8.426-2.99 9.632-7.313l51.333-184c.841-3.011.224-6.243-1.667-8.733zm-189.908-141.914h118v137.96h-68v-70c0-5.523-4.477-10-10-10h-40zm60.167 194.5c5.523 0 10-4.477 10-10v-5.349l11.196 11.208v78.309h-42.391v-78.303l11.195-11.183v5.318c0 5.523 4.477 10 10 10zm-158.167-116.54h128v60h-128zm29.793 375.04c0 10.477-8.523 19-19 19s-19-8.523-19-19 8.523-19 19-19 19 8.523 19 19zm160.111 0c0 10.477-8.523 19-19 19s-19-8.523-19-19 8.523-19 19-19 19 8.523 19 19zm26.096-63v24h-245c-5.313 0-9.925-3.415-11.477-8.496l-96.614-316.424c-1.284-4.206-5.166-7.08-9.564-7.08h-55.345v-24h71.63c5.313 0 9.925 3.415 11.477 8.496l96.615 316.424c1.284 4.206 5.166 7.08 9.564 7.08zm5.018-68.04h-240.998l-50.074-164h211.166l-18.958 18.938c-3.342 3.337-5.182 7.777-5.182 12.5v81.602c0 9.742 7.926 17.668 17.668 17.668h47.055c9.742 0 17.668-7.926 17.668-17.668v-81.606c0-4.716-1.835-9.15-5.168-12.486l-18.926-18.947h91.503z"/></g></svg>