<svg id="Layer_3" enable-background="new 0 0 64 64" height="512" viewBox="0 0 64 64" width="512" xmlns="http://www.w3.org/2000/svg"><g><path d="m10 55h10c.553 0 1-.448 1-1v-16c0-.552-.447-1-1-1h-10c-.553 0-1 .448-1 1v16c0 .552.447 1 1 1zm1-2v-4h8v4zm0-6v-2h8v2zm8-8v4h-8v-4z"/><path d="m62.592 33.193-18.789-13.778c.761-1.651 1.197-3.481 1.197-5.415 0-7.168-5.832-13-13-13s-13 5.832-13 13c0 1.934.436 3.764 1.197 5.415l-18.789 13.778c-.348.256-.493.707-.358 1.118s.517.689.95.689h3v22h-1c-.553 0-1 .448-1 1v4c0 .552.447 1 1 1h56c.553 0 1-.448 1-1v-4c0-.552-.447-1-1-1h-1v-22h3c.433 0 .815-.278.95-.689s-.01-.862-.358-1.118zm-30.592-30.193c6.065 0 11 4.935 11 11s-4.935 11-11 11-11-4.935-11-11 4.935-11 11-11zm-10.827 18.18c2.331 3.504 6.312 5.82 10.827 5.82s8.496-2.316 10.827-5.819l16.118 11.819h-53.89zm37.827 39.82h-54v-2h54zm-22-4h-10v-14h10zm20 0h-18v-15c0-.552-.447-1-1-1h-12c-.553 0-1 .448-1 1v15h-18v-22h50z"/><path d="m44 55h10c.553 0 1-.448 1-1v-16c0-.552-.447-1-1-1h-10c-.553 0-1 .448-1 1v16c0 .552.447 1 1 1zm1-2v-4h8v4zm0-6v-2h8v2zm8-8v4h-8v-4z"/><path d="m29 49h2v4h-2z"/><path d="m32 19c-1.103 0-2-.897-2-2h-2c0 1.858 1.279 3.411 3 3.858v2.142h2v-2.142c1.721-.447 3-2 3-3.858 0-2.206-1.794-4-4-4-1.103 0-2-.897-2-2s.897-2 2-2 2 .897 2 2h2c0-1.858-1.279-3.411-3-3.858v-2.142h-2v2.142c-1.721.447-3 2-3 3.858 0 2.206 1.794 4 4 4 1.103 0 2 .897 2 2s-.897 2-2 2z"/><path d="m7 16c0-1.654 1.346-3 3-3h3.586l-2.293 2.293 1.414 1.414 4-4c.391-.391.391-1.023 0-1.414l-4-4-1.414 1.414 2.293 2.293h-3.586c-2.757 0-5 2.243-5 5v8h2z"/><path d="m51.293 16.707 1.414-1.414-2.293-2.293h3.586c1.654 0 3 1.346 3 3v8h2v-8c0-2.757-2.243-5-5-5h-3.586l2.293-2.293-1.414-1.414-4 4c-.391.391-.391 1.023 0 1.414z"/></g></svg>