<svg id="_x33_0_Cannon" enable-background="new 0 0 64 64" height="512" viewBox="0 0 64 64" width="512" xmlns="http://www.w3.org/2000/svg"><path d="m13 48c-1.654 0-3 1.346-3 3s1.346 3 3 3 3-1.346 3-3-1.346-3-3-3zm0 4c-.551 0-1-.448-1-1s.449-1 1-1 1 .448 1 1-.449 1-1 1z"/><path d="m13 43c-4.411 0-8 3.589-8 8s3.589 8 8 8 8-3.589 8-8-3.589-8-8-8zm0 14c-3.309 0-6-2.691-6-6s2.691-6 6-6 6 2.691 6 6-2.691 6-6 6z"/><path d="m63 33c0-1.654-1.346-3-3-3h-1v-24c0-2.757-2.243-5-5-5-1.641 0-3.088.806-4 2.031-.912-1.225-2.359-2.031-4-2.031s-3.088.806-4 2.031c-.912-1.225-2.359-2.031-4-2.031s-3.088.806-4 2.031c-.912-1.225-2.359-2.031-4-2.031s-3.088.806-4 2.031c-.912-1.225-2.359-2.031-4-2.031-2.757 0-5 2.243-5 5v24c0-4.963-4.038-9-9-9h-.382c-.704-.615-1.613-1-2.618-1-2.206 0-4 1.794-4 4s1.794 4 4 4c.974 0 1.856-.364 2.55-.944 1.877.262 3.331 1.818 3.429 3.742-.597.548-.979 1.328-.979 2.202 0 1.302.839 2.402 2 2.816v3.235c-6.149.511-11 5.669-11 11.949 0 6.617 5.383 12 12 12s12-5.383 12-12h28v2.101c-2.279.465-4 2.484-4 4.899 0 2.757 2.243 5 5 5s5-2.243 5-5c0-2.414-1.721-4.434-4-4.899v-2.101h6v-15.184c1.161-.414 2-1.514 2-2.816zm-6 25c0 1.654-1.346 3-3 3s-3-1.346-3-3c0-1.302.839-2.402 2-2.816v2.816h2v-2.816c1.161.414 2 1.514 2 2.816zm-2-28v-19h2v19zm-21.117 0-.75-6h5.734l-.75 6zm10 0-.75-6h5.734l-.75 6zm2.937-8-1-5h-3.82v2h2.18l.6 3h-3.647-.266-4.047l-1-5h-3.82v2h2.18l.6 3h-3.913l1 8h-8.867v-19h30v19h-2.867l1-8zm-4.953 8h-1.735l.868-6.938zm12.133-27c1.654 0 3 1.346 3 3v3h-6v-3c0-1.654 1.346-3 3-3zm-8 0c1.654 0 3 1.346 3 3v3h-6v-3c0-1.654 1.346-3 3-3zm-8 0c1.654 0 3 1.346 3 3v3h-6v-3c0-1.654 1.346-3 3-3zm-8 0c1.654 0 3 1.346 3 3v3h-6v-3c0-1.654 1.346-3 3-3zm-8 0c1.654 0 3 1.346 3 3v3h-6v-3c0-1.654 1.346-3 3-3zm-3 8h2v19h-2zm-14 15c-1.103 0-2-.897-2-2s.897-2 2-2 2 .897 2 2-.897 2-2 2zm3.775-.732c.135-.401.225-.822.225-1.268 0-.325-.05-.636-.123-.939 3.447.434 6.123 3.377 6.123 6.939h-2c-.03 0-.059.008-.089.009-.376-2.248-1.999-4.078-4.136-4.741zm4.225 35.732c-5.514 0-10-4.486-10-10s4.486-10 10-10 10 4.486 10 10-4.486 10-10 10zm11.819-12c-.902-5.344-5.339-9.494-10.819-9.949v-3.051h45v13zm35.181-15h-47c-.551 0-1-.448-1-1s.449-1 1-1h47c.551 0 1 .448 1 1s-.449 1-1 1z"/></svg>