<svg width="160" height="160" viewBox="24 24 160 160" fill="none" xmlns="http://www.w3.org/2000/svg">
<path d="M155.931 155.688C184.535 127.106 184.535 80.7661 155.931 52.1843C127.327 23.6024 80.9499 23.6024 52.3455 52.1843C23.7412 80.7661 23.7412 127.106 52.3455 155.688C80.9499 184.27 127.327 184.27 155.931 155.688Z" fill="#ECEEF0"/>
<path d="M163.537 105.371C163.537 117.362 159.978 129.084 153.311 139.054C146.644 149.024 137.167 156.794 126.08 161.382C114.993 165.97 102.793 167.17 91.0237 164.83C79.2541 162.49 68.4433 156.715 59.9584 148.236C51.4736 139.756 45.6959 128.953 43.356 117.192C41.0161 105.432 42.219 93.2417 46.8127 82.1641C51.4064 71.0865 59.1846 61.6189 69.1634 54.9586C79.1423 48.2982 90.8737 44.7443 102.874 44.7463C118.964 44.749 134.393 51.1374 145.77 62.5065C157.146 73.8756 163.537 89.2942 163.537 105.371Z" fill="white"/>
<path d="M163.535 104.982C163.561 90.1774 158.14 75.8791 148.304 64.8073C137.335 53.3029 122.284 46.5614 106.39 46.0339C90.4963 45.5065 75.0308 51.2351 63.3218 61.9869C51.6128 72.7387 44.5964 87.6542 43.7827 103.523C42.969 119.392 48.423 134.946 58.9709 146.837C67.337 155.604 78.1397 161.664 89.9857 164.237C101.832 166.811 114.177 165.778 125.431 161.274C136.684 156.77 146.329 148.999 153.12 138.966C159.912 128.932 163.54 117.096 163.535 104.982Z" fill="#E8F2FE"/>
<path d="M163.535 105.371C163.561 90.5661 158.14 76.2678 148.304 65.196C137.335 53.6915 122.284 46.9501 106.39 46.4226C90.4963 45.8951 75.0308 51.6238 63.3218 62.3756C51.6128 73.1274 44.5964 88.0429 43.7827 103.912C42.969 119.781 48.423 135.335 58.9709 147.226C67.337 155.992 78.1397 162.053 89.9857 164.626C101.832 167.199 114.177 166.167 125.431 161.663C136.684 157.158 146.329 149.388 153.12 139.355C159.912 129.321 163.54 117.484 163.535 105.371Z" stroke="white" stroke-width="0.17" stroke-miterlimit="10"/>
<path d="M157.406 78.7856C163.485 92.4621 164.286 107.902 159.656 122.133C155.026 136.364 145.292 148.382 132.327 155.873C119.363 163.364 104.083 165.799 89.4299 162.71C74.7764 159.62 61.784 151.225 52.9531 139.139C54.7375 141.985 56.7579 144.677 58.9932 147.186C68.9944 157.618 82.3948 164.14 96.7811 165.576C111.167 167.013 125.594 163.27 137.464 155.021C149.333 146.772 157.865 134.56 161.523 120.583C165.181 106.607 163.725 91.7845 157.416 78.7856H157.406Z" fill="#D8D9DD"/>
<defs>
<radialGradient id="paint0_radial" cx="0" cy="0" r="1" gradientUnits="userSpaceOnUse" gradientTransform="translate(93766.8 14194.2) scale(10658.8 10650.4)">
<stop offset="0.04" stop-color="#D8D9DD"/>
<stop offset="0.55" stop-color="#ECEEF0"/>
<stop offset="1" stop-color="#F6F6F7"/>
</radialGradient>
<radialGradient id="paint1_radial" cx="0" cy="0" r="1" gradientUnits="userSpaceOnUse" gradientTransform="translate(52.9471 48.3787) scale(175.186 175.05)">
<stop offset="0.04" stop-color="#E8F2FE"/>
<stop offset="0.55" stop-color="#E8F2FE"/>
<stop offset="1" stop-color="white"/>
</radialGradient>
<clipPath id="clip0">
<rect width="58.6768" height="58.6768" fill="white" transform="translate(70.1328 72.1794)"/>
</clipPath>
</defs>
</svg>
