<svg width="64" height="64" viewBox="0 0 64 64" fill="none" xmlns="http://www.w3.org/2000/svg">
<g clip-path="url(#clip0)">
<path d="M51.8081 9.66943C47.1797 6.87012 41.7544 5.25732 35.9507 5.25732C24.4175 5.25732 14.3755 11.6211 9.13086 21.0259L14.248 25.124C17.0088 18.0049 23.9058 12.9487 31.9995 12.9487C35.9541 12.9487 39.6177 14.1641 42.6587 16.2305L42.7485 16.29C43.9648 17.0547 45.5669 17.0269 46.5474 15.9771L51.1885 11.0254C51.5703 10.6172 51.7725 10.1421 51.8081 9.66943Z" fill="#D50707"/>
<path d="M12.9482 32C12.9482 29.5723 13.4199 27.2593 14.248 25.124L9.50293 21.3237C8.26709 24.6484 7.58984 28.2446 7.58984 32.0005C7.58984 35.7554 8.26611 39.3521 9.50146 42.6772L14.2231 38.8081C13.4116 36.6904 12.9482 34.4019 12.9482 32Z" fill="#FFD41D"/>
<path d="M32.0015 51.0518C23.8809 51.0518 16.9663 45.9629 14.2241 38.8071L9.45117 42.7183C14.7031 52.1006 24.7334 58.4453 36.249 58.4453C41.6309 58.4453 46.6851 57.0557 51.0811 54.6211L42.5928 47.8228C39.5625 49.8555 35.9243 51.0518 32.0015 51.0518Z" fill="#1EB615"/>
<path d="M62.5816 29.3857C62.3926 27.9614 61.062 26.7964 59.6255 26.7964H35.8462C34.4097 26.7964 33.2344 27.9717 33.2344 29.4082V35.0322C33.2344 36.4692 34.4097 37.6445 35.8462 37.6445H47.5879C48.9404 37.6445 49.8579 38.5698 49.4087 39.7427C47.939 43.0366 45.5576 45.832 42.5913 47.8228L51.9487 55.3169C58.5225 49.687 62.6934 41.333 62.6934 32C62.6934 30.2241 62.5816 29.3857 62.5816 29.3857Z" fill="#0084FF"/>
<path d="M40.5552 30.3325H39.9702C39.249 30.3325 38.6641 30.917 38.6641 31.6387C38.6641 32.3599 39.249 32.9448 39.9702 32.9448H40.5552C41.2764 32.9448 41.8613 32.3599 41.8613 31.6387C41.8613 30.917 41.2764 30.3325 40.5552 30.3325Z" fill="black"/>
<path d="M56.1606 30.3325H44.7803C44.0591 30.3325 43.4746 30.917 43.4746 31.6387C43.4746 32.3599 44.0591 32.9448 44.7803 32.9448H56.1606C56.8823 32.9448 57.4668 32.3599 57.4668 31.6387C57.4668 30.917 56.8823 30.3325 56.1606 30.3325Z" fill="black"/>
<path d="M63.877 29.2139C63.5996 27.1255 61.7324 25.4902 59.626 25.4902H35.8467C33.6865 25.4902 31.9287 27.248 31.9287 29.4082V35.0322C31.9287 37.1929 33.6865 38.9507 35.8467 38.9507H47.5884C47.9951 38.9507 48.1953 39.0962 48.2178 39.1445C48.2197 39.1533 48.2192 39.189 48.1987 39.251C46.8364 42.2827 44.6465 44.8711 41.8638 46.7383C38.9307 48.7061 35.52 49.7456 32.0005 49.7456C24.7119 49.7456 18.0581 45.1626 15.4434 38.3413C15.4434 38.3413 15.4434 38.3408 15.4434 38.3403C14.6548 36.2827 14.2549 34.1494 14.2549 32C14.2549 29.8232 14.6626 27.6685 15.4663 25.5962C15.4668 25.5952 15.4668 25.5942 15.4673 25.5933C18.1396 18.7051 24.6284 14.2549 31.9995 14.2549C35.5508 14.2549 38.9829 15.3115 41.9248 17.3105C41.9297 17.314 41.9346 17.3174 41.9399 17.3208L42.0298 17.3804C42.0376 17.3853 42.0454 17.3906 42.0532 17.3955C42.813 17.8735 43.6743 18.1265 44.5444 18.1265C45.6943 18.1265 46.7446 17.6797 47.5005 16.8701L52.1431 11.9175C52.877 11.1318 53.2241 10.105 53.0952 9.10107C52.9712 8.13623 52.417 7.26221 51.5679 6.68555C51.5459 6.66602 51.5229 6.64697 51.4995 6.62891C45.8662 2.29248 39.123 0 31.9995 0C20.1353 0 9.30176 6.51758 3.72803 17.0093C3.72705 17.0107 3.72656 17.0122 3.72559 17.0137C1.28857 21.603 0 26.7856 0 32.0005C0 37.2427 1.2998 42.4473 3.75879 47.0522C3.75879 47.0522 3.75928 47.0527 3.75928 47.0532C9.34326 57.5063 20.1641 64 31.9995 64C39.6187 64 47.0029 61.27 52.7939 56.3125C52.7954 56.311 52.7974 56.3101 52.7988 56.3091C59.917 50.2124 63.9995 41.3521 63.9995 32C63.9995 30.1587 63.8818 29.2515 63.877 29.2139ZM31.9995 2.6123C38.5239 2.6123 44.6992 4.70508 49.8633 8.66553C49.8633 8.66553 50.0054 8.77734 50.0659 8.82373C50.3345 9.02881 50.4741 9.2002 50.5044 9.43359C50.5342 9.66699 50.4385 9.91553 50.2358 10.1323L45.5933 15.0854C45.2622 15.4395 44.8403 15.5142 44.5444 15.5142C44.1768 15.5142 43.7905 15.3994 43.4551 15.1909L43.3853 15.145C40.0103 12.8535 36.0732 11.6426 32 11.6426C27.8145 11.6426 23.7949 12.9062 20.376 15.2964C17.5229 17.291 15.2524 19.9448 13.7363 23.0405L6.55811 17.2915C11.813 8.20898 21.4634 2.6123 31.9995 2.6123ZM5.33203 19.6562L12.7026 25.5596C11.999 27.6538 11.6426 29.8159 11.6426 32C11.6426 34.1587 11.9927 36.3008 12.6836 38.3799L5.35107 44.3887C3.55664 40.5283 2.6123 36.2788 2.6123 32.0005C2.6123 27.7402 3.55029 23.5059 5.33203 19.6562ZM31.9995 61.3877C21.4868 61.3877 11.8457 55.8081 6.58398 46.7559L13.7144 40.9131C15.2246 44.0166 17.4912 46.6792 20.3442 48.6821C23.77 51.0869 27.8008 52.3579 32.0005 52.3579C35.7188 52.3579 39.3301 51.3477 42.5049 49.4268L49.8677 55.3232C44.7534 59.2446 38.4683 61.3877 31.9995 61.3877ZM51.9038 53.6074L44.7339 47.8647C47.2661 45.8335 49.2793 43.2397 50.6021 40.2749C50.6118 40.2534 50.6211 40.2314 50.6294 40.2095C50.9683 39.3242 50.873 38.3955 50.3682 37.6616C49.7979 36.833 48.7588 36.3384 47.5884 36.3384H35.8467C35.127 36.3384 34.541 35.7524 34.541 35.0322V29.4082C34.541 28.688 35.127 28.1021 35.8467 28.1021H59.626C60.4082 28.1021 61.1846 28.7822 61.2871 29.5542C61.2881 29.562 61.3877 30.3589 61.3877 32C61.3877 40.229 57.9429 48.042 51.9038 53.6074Z" fill="black"/>
</g>
<defs>
<clipPath id="clip0">
<rect width="64" height="64" fill="white"/>
</clipPath>
</defs>
</svg>
