<svg width="157" height="407" viewBox="0 0 157 407" fill="none" xmlns="http://www.w3.org/2000/svg">
<path d="M69.5523 204.199C70.1692 201.702 71.4637 199.424 73.2932 197.616C75.1227 195.807 77.4162 194.538 79.9211 193.949C82.153 147.686 100.107 103.567 130.819 68.8765C129.416 66.6801 128.655 64.136 128.621 61.5306C128.587 58.9252 129.282 56.3622 130.628 54.1302L81.6627 5.20385L86.4142 0.456055L135.379 49.3824C137.456 48.1294 139.824 47.4379 142.249 47.3759C144.674 47.3139 147.074 47.8836 149.213 49.0289C151.351 50.1742 153.154 51.8558 154.445 53.9083C155.736 55.9608 156.471 58.3137 156.576 60.7357C156.682 63.1577 156.155 65.5654 155.047 67.7223C153.939 69.8791 152.289 71.7108 150.258 73.0374C148.227 74.364 145.886 75.1398 143.465 75.2885C141.043 75.4373 138.624 74.9539 136.446 73.8858C106.898 107.28 89.6201 149.738 87.4611 194.26C90.2275 195.157 92.6449 196.894 94.3763 199.229C96.1077 201.564 97.0669 204.38 97.1201 207.286C97.1733 210.191 96.3179 213.041 94.673 215.437C93.0282 217.834 90.676 219.658 87.9443 220.655C91.4926 262.362 108.305 301.841 135.923 333.314C138.088 332.182 140.512 331.637 142.954 331.732C145.396 331.827 147.77 332.559 149.841 333.856C151.911 335.153 153.606 336.969 154.756 339.123C155.906 341.278 156.471 343.695 156.396 346.136C156.32 348.577 155.606 350.955 154.325 353.034C153.043 355.113 151.24 356.821 149.093 357.987C146.946 359.153 144.53 359.737 142.087 359.681C139.644 359.625 137.259 358.931 135.168 357.667L86.2028 406.593L81.421 401.876L130.386 352.949C129.067 350.769 128.37 348.27 128.37 345.722C128.37 343.174 129.067 340.675 130.386 338.495C101.602 305.767 84.0859 264.674 80.4144 221.258C77.8028 220.745 75.3922 219.498 73.4661 217.662C71.5401 215.827 70.1787 213.48 69.5422 210.898H0.302734V204.199H69.5523Z" fill="#ECEEF0"/>
<defs>
<radialGradient id="paint0_radial" cx="0" cy="0" r="1" gradientUnits="userSpaceOnUse" gradientTransform="translate(217651 131195) rotate(180) scale(23904 62118.7)">
<stop stop-color="#ECEEF0"/>
<stop offset="1" stop-color="#F6F6F7"/>
</radialGradient>
</defs>
</svg>
