<svg width="59" height="59" viewBox="0 0 59 59" fill="none" xmlns="http://www.w3.org/2000/svg">
<g clip-path="url(#clip0)">
<path d="M28.3657 22.7972C22.9815 17.8889 13.8816 21.7283 14.0778 29.0115C14.0778 35.4306 8.87404 40.6343 2.4549 40.6343C2.05814 40.6343 1.66597 40.6142 1.2793 40.5754C2.08645 42.621 3.31591 44.5387 4.97009 46.1928C11.4306 52.6533 21.9051 52.6533 28.3657 46.1928C34.8263 39.7324 34.8263 29.2577 28.3657 22.7972Z" fill="#FFD88E"/>
<path d="M56.9324 46.2684C52.9382 46.2684 49.7003 43.0306 49.7003 39.0363C49.7934 34.4332 44.1457 31.9964 40.8099 35.1696C36.7899 39.1895 36.7899 45.7072 40.8099 49.7272C44.8298 53.7471 51.3474 53.7471 55.3675 49.7272C56.3967 48.6979 57.1618 47.5047 57.664 46.2318C57.4232 46.256 57.1793 46.2684 56.9324 46.2684Z" fill="#CBF4FB"/>
<path d="M18.5764 32.2214C17.5669 32.6783 16.8077 33.5357 16.4231 34.5748C15.8193 36.2063 14.3262 37.4298 12.52 37.6135C12.1945 37.6466 11.875 37.6456 11.5645 37.6144C11.9094 38.4886 12.4461 39.3047 13.1758 39.9972C15.7327 42.424 19.7938 42.4179 22.3435 39.9836C23.2591 39.1094 23.8696 38.0403 24.1752 36.9061C25.0579 33.6292 21.671 30.821 18.5792 32.2203L18.5764 32.2214Z" fill="#F7E4BF"/>
<path d="M48.407 41.5763C49.0728 41.8776 49.5735 42.4429 49.8271 43.1282C50.2252 44.2041 51.2099 45.0109 52.401 45.132C52.6156 45.1538 52.8262 45.1533 53.031 45.1326C52.8036 45.7091 52.4497 46.2473 51.9684 46.7039C50.2823 48.3043 47.6042 48.3002 45.9229 46.6949C45.3191 46.1184 44.9165 45.4134 44.715 44.6655C44.1329 42.5047 46.3663 40.6528 48.4052 41.5755L48.407 41.5763Z" fill="#CBF4FB"/>
<path d="M51.2152 26.538L45.8722 21.1949C44.3968 19.7195 44.3968 17.3273 45.8722 15.8519C47.3476 14.3765 49.7398 14.3765 51.2152 15.8519C52.6906 14.3765 55.0828 14.3765 56.5582 15.8519C58.0336 17.3273 58.0336 19.7195 56.5582 21.1949L51.2152 26.538Z" fill="#FF7A7A"/>
<path d="M37.4351 11.4714L33.9357 7.97196C32.9694 7.00563 32.9694 5.43889 33.9357 4.47255C34.902 3.50622 36.4688 3.50622 37.4351 4.47255C38.4014 3.50622 39.9682 3.50622 40.9345 4.47255C41.9008 5.43889 41.9008 7.00563 40.9345 7.97196L37.4351 11.4714Z" fill="#FF7A7A"/>
<path d="M32.7601 38.5074C32.1578 38.3131 31.5119 38.6432 31.317 39.2454C30.5643 41.5741 29.2985 43.639 27.5547 45.3827C21.5515 51.3862 11.7832 51.3862 5.77993 45.3827C4.69922 44.302 3.79855 43.0902 3.08962 41.765C6.02369 41.6205 8.70024 40.4805 10.7888 38.6771C11.1915 39.4783 11.7256 40.2007 12.3871 40.8287C13.8354 42.203 15.7402 42.9595 17.7524 42.9595H17.7643C19.7809 42.9565 21.6882 42.194 23.1351 40.8127C24.1698 39.8247 24.9123 38.5769 25.2821 37.2043C25.8021 35.2736 25.1727 33.2646 23.6394 31.9613C22.0834 30.6388 19.9662 30.3375 18.112 31.1741C18.1094 31.1753 18.1066 31.1765 18.104 31.1776C16.8294 31.7547 15.8508 32.8199 15.3484 34.1775C14.9374 35.2883 13.9909 36.1193 12.8671 36.3932C14.3498 34.3077 15.2231 31.7599 15.2231 29.0118C15.2231 29.0014 15.223 28.9911 15.2226 28.9808C15.146 26.134 16.7124 23.6965 19.4128 22.4604C21.6216 21.4493 24.9233 21.2263 27.5737 23.6269C29.3094 25.3683 30.5694 27.4289 31.3192 29.7519C31.5136 30.3542 32.1595 30.6846 32.7619 30.4905C33.3642 30.2961 33.695 29.6502 33.5005 29.0479C33.2134 28.1584 32.86 27.3035 32.4445 26.4836L33.7965 25.6792C34.2036 25.4371 34.4197 24.9694 34.3403 24.5022C34.261 24.0353 33.9025 23.6652 33.4382 23.5711L30.0042 22.8749C29.7388 22.5716 29.4635 22.275 29.1753 21.9869C29.1629 21.9745 29.15 21.9623 29.1371 21.9504C26.2702 19.337 22.0784 18.7192 18.4587 20.3763C14.9538 21.9806 12.8368 25.294 12.931 29.0263C12.9233 34.7963 8.22647 39.4884 2.45449 39.4884C2.10139 39.4884 1.74441 39.4705 1.39349 39.4352C0.996621 39.3964 0.606168 39.5654 0.364814 39.8843C0.123689 40.203 0.0661583 40.6244 0.212736 40.9961C1.10366 43.2545 2.43145 45.2757 4.15921 47.0034C7.19321 50.0374 11.1353 51.8332 15.3727 52.1377C15.5666 53.6135 16.4641 54.907 17.8133 55.6012C17.981 55.6876 18.16 55.7284 18.3366 55.7284C18.7523 55.7284 19.1533 55.5016 19.3565 55.1064C19.6461 54.5436 19.4247 53.8527 18.8619 53.5631C18.2877 53.2676 17.8773 52.7545 17.7091 52.1531C18.6943 52.0963 19.6644 51.9596 20.6116 51.7451C20.8744 53.3892 21.895 54.8222 23.409 55.6012C23.5768 55.6876 23.7558 55.7284 23.9324 55.7284C24.348 55.7284 24.749 55.5016 24.9522 55.1064C25.2418 54.5436 25.0204 53.8527 24.4576 53.5631C23.5097 53.0753 22.9025 52.1352 22.8404 51.0809C25.1921 50.207 27.3487 48.8302 29.1756 47.0033C31.1784 45.0005 32.6326 42.6275 33.4982 39.9503C33.6928 39.3482 33.3624 38.7021 32.7601 38.5074ZM17.4982 34.9727C17.7856 34.1961 18.3348 33.5906 19.0447 33.2678C19.0471 33.2666 19.0496 33.2655 19.052 33.2644C20.2941 32.7023 21.4694 33.1249 22.1551 33.7076C23.0188 34.4416 23.3605 35.5259 23.0689 36.6081C22.8083 37.5758 22.2838 38.4564 21.5525 39.1549C19.4282 41.1829 16.0952 41.188 13.9651 39.1663C13.7803 38.9908 13.6093 38.8053 13.4524 38.61C15.2876 38.1457 16.8279 36.7844 17.4982 34.9727Z" fill="black"/>
<path d="M22.2887 26.1257C21.8412 26.5732 21.8413 27.2989 22.2888 27.7464C22.7364 28.1941 23.4621 28.1938 23.9095 27.7463C24.0043 27.6516 24.1149 27.6374 24.1724 27.6374C24.23 27.6374 24.3406 27.6516 24.4353 27.7463C24.659 27.9701 24.9524 28.0821 25.2457 28.0821C25.539 28.0821 25.8322 27.9701 26.0559 27.7464C26.5035 27.299 26.5036 26.5733 26.0561 26.1257C25.553 25.6224 24.8839 25.3452 24.1723 25.3452C23.4608 25.3452 22.7918 25.6224 22.2887 26.1257Z" fill="black"/>
<path d="M58.5775 45.5403C58.3364 45.2217 57.9474 45.0517 57.5488 45.0914C57.3452 45.1119 57.1376 45.1223 56.9319 45.1223C53.5796 45.1223 50.8515 42.3978 50.8459 39.0467C50.8931 36.4678 49.4337 34.2098 47.0343 33.1518C44.6042 32.0801 41.9162 32.5349 40.0196 34.3391C40.0127 34.3456 40.006 34.3522 39.9991 34.359C39.8483 34.5098 39.7026 34.6645 39.5613 34.8221L37.5668 35.2266C37.1025 35.3206 36.744 35.6908 36.6647 36.1577C36.5854 36.6247 36.8014 37.0924 37.2085 37.3347L37.7062 37.6308C37.0138 39.1207 36.6484 40.7563 36.6484 42.4482C36.6484 45.5039 37.8384 48.3767 39.999 50.5374C41.1233 51.6618 42.4256 52.5024 43.8159 53.0598C43.7939 53.5728 43.5025 54.032 43.0427 54.2685C42.48 54.5581 42.2585 55.2492 42.5482 55.812C42.7514 56.2069 43.1524 56.4339 43.5681 56.4339C43.7447 56.4339 43.9238 56.3929 44.0916 56.3066C45.1245 55.7751 45.8311 54.8114 46.0425 53.6991C46.7184 53.8209 47.4033 53.8828 48.0881 53.8828C48.3529 53.8828 48.6176 53.8734 48.8817 53.8552C48.7891 54.0287 48.6467 54.1747 48.464 54.2687C47.9013 54.5583 47.6798 55.2493 47.9695 55.8121C48.1728 56.2071 48.5738 56.434 48.9894 56.434C49.166 56.434 49.3451 56.3931 49.5129 56.3068C50.599 55.7478 51.2766 54.6473 51.2901 53.4285C53.0807 52.9096 54.7685 51.9465 56.1772 50.5378C57.2944 49.4205 58.153 48.1133 58.7294 46.6525C58.8762 46.2804 58.8185 45.859 58.5775 45.5403ZM51.0806 45.9618C49.8418 47.0417 47.9107 47.0089 46.7136 45.8658C46.283 45.4546 45.9743 44.9364 45.8209 44.3673C45.669 43.8032 45.8477 43.2373 46.2995 42.8535C46.5911 42.6056 46.9378 42.4784 47.2922 42.4784C47.5063 42.4784 47.7232 42.5248 47.932 42.6194C47.9351 42.6209 47.9383 42.6221 47.9415 42.6236C48.3116 42.7937 48.5991 43.1138 48.7516 43.5258C49.162 44.635 50.0218 45.5121 51.0806 45.9618ZM54.5567 48.9167C50.9901 52.4835 45.1865 52.4835 41.6199 48.9167C38.0567 45.3535 38.0534 39.5577 41.6095 35.9902C43.059 34.62 44.8835 34.7083 46.1096 35.249C47.3174 35.7816 48.5939 37.0501 48.5541 39.013C48.554 39.0207 48.5539 39.0285 48.5539 39.0362C48.5539 39.5176 48.5967 39.989 48.675 40.4484C47.3629 39.9402 45.9023 40.1828 44.8149 41.1071C43.6876 42.0651 43.2249 43.543 43.6077 44.9636C43.8703 45.9377 44.397 46.823 45.1308 47.5236C46.2005 48.5449 47.5749 49.0558 48.9497 49.0558C50.3188 49.0557 51.6883 48.5489 52.7566 47.5349C53.0347 47.271 53.2804 46.9829 53.4951 46.6743C54.2217 47.0025 55.0021 47.2318 55.8206 47.3407C55.4617 47.9072 55.0395 48.434 54.5567 48.9167Z" fill="black"/>
<path d="M50.404 27.3481C50.6278 27.5718 50.9211 27.6838 51.2143 27.6838C51.5076 27.6838 51.8009 27.5718 52.0247 27.3481L57.3677 22.005C59.2876 20.085 59.2876 16.9611 57.3677 15.0412C55.699 13.3726 53.1208 13.1544 51.2143 14.386C49.3076 13.1542 46.7295 13.3727 45.061 15.0412C43.1411 16.9611 43.1411 20.085 45.061 22.0051L50.404 27.3481ZM46.6818 16.6621C47.195 16.1489 47.8689 15.8924 48.5429 15.8924C49.2169 15.8924 49.891 16.149 50.404 16.6621C50.8516 17.1095 51.5771 17.1095 52.0248 16.6621C53.0509 15.6358 54.7205 15.6356 55.747 16.6621C56.7733 17.6882 56.7732 19.358 55.747 20.3843L51.2143 24.9169L46.6817 20.3844C45.6556 19.3581 45.6555 17.6882 46.6818 16.6621Z" fill="black"/>
<path d="M38.2451 12.2818L41.7443 8.78235C42.4282 8.09852 42.8048 7.18948 42.8048 6.22223C42.8048 5.25521 42.4282 4.34607 41.7444 3.66223C41.0606 2.97839 40.1514 2.60181 39.1844 2.60181C38.5618 2.60181 37.9633 2.7579 37.4334 3.05151C36.0576 2.29364 34.2899 2.49752 33.1249 3.66223C32.441 4.34607 32.0645 5.25521 32.0645 6.22223C32.0645 7.18925 32.441 8.09852 33.1249 8.78235L36.6243 12.2818C36.8393 12.4966 37.1307 12.6174 37.4346 12.6174C37.7386 12.6174 38.0302 12.4966 38.2451 12.2818ZM34.7457 7.16152C34.2277 6.64351 34.2277 5.80095 34.7456 5.28295C35.0047 5.02394 35.3449 4.89444 35.685 4.89444C36.0251 4.89444 36.3655 5.02394 36.6243 5.28295C37.0719 5.73036 37.7974 5.73036 38.2451 5.28295C38.7632 4.76483 39.6059 4.76506 40.1238 5.28295C40.3747 5.53381 40.5129 5.86742 40.5129 6.22212C40.5129 6.57704 40.3748 6.91054 40.1237 7.16141L37.4348 9.85045L34.7457 7.16152Z" fill="black"/>
<path d="M44.4195 38.8646C44.7209 38.8646 45.0166 38.7421 45.2297 38.5288C45.4429 38.3155 45.5655 38.0199 45.5655 37.7185C45.5655 37.4171 45.443 37.1215 45.2297 36.9084C45.0166 36.6952 44.7209 36.5725 44.4195 36.5725C44.1181 36.5725 43.8224 36.6951 43.6093 36.9084C43.3962 37.1215 43.2734 37.4171 43.2734 37.7185C43.2734 38.0199 43.3961 38.3156 43.6093 38.5288C43.8224 38.7419 44.1181 38.8646 44.4195 38.8646Z" fill="black"/>
<path d="M33.2105 33.3489C32.9079 33.3489 32.6134 33.4715 32.4002 33.6847C32.1872 33.8978 32.0645 34.1935 32.0645 34.4949C32.0645 34.7963 32.1871 35.092 32.4002 35.3052C32.6134 35.5182 32.9091 35.6409 33.2105 35.6409C33.5119 35.6409 33.8076 35.5183 34.0207 35.3052C34.2338 35.092 34.3565 34.7963 34.3565 34.4949C34.3565 34.1935 34.2339 33.8978 34.0207 33.6847C33.8076 33.4715 33.5119 33.3489 33.2105 33.3489Z" fill="black"/>
</g>
<defs>
<clipPath id="clip0">
<rect width="58.6768" height="58.6768" fill="white" transform="translate(0.132812 0.179443)"/>
</clipPath>
</defs>
</svg>
