<svg width="60" height="70" viewBox="0 0 60 70" fill="none" xmlns="http://www.w3.org/2000/svg">
<path fill-rule="evenodd" clip-rule="evenodd" d="M4.47334 -2H35.1317C37.4516 -2 39.3492 -0.102547 39.3492 2.21748V65.7825C39.3492 68.1025 37.4516 70 35.1317 70H4.47334C2.15331 70 0.255859 68.1025 0.255859 65.7825V2.21748C0.256 -0.102547 2.15331 -2 4.47334 -2V-2Z" fill="#CBE2FF"/>
<path fill-rule="evenodd" clip-rule="evenodd" d="M35.1309 6.9292H39.3483V55.4461H35.1309V6.9292Z" fill="#9DC6FB"/>
<path fill-rule="evenodd" clip-rule="evenodd" d="M39.3511 6.92927C26.32 6.92927 13.289 6.92927 0.257812 6.92927V2.21748C0.257812 -0.102547 2.15513 -2 4.47516 -2H35.1335C37.4534 -2 39.351 -0.102547 39.351 2.21748V6.92927H39.3511ZM39.3511 55.4462C26.32 55.4462 13.289 55.4462 0.257812 55.4462V65.7825C0.257812 68.1025 2.15527 70 4.4753 70H35.1337C37.4535 70 39.3511 68.1025 39.3511 65.7825V55.4462Z" fill="#407093"/>
<path fill-rule="evenodd" clip-rule="evenodd" d="M39.3492 6.92927H35.1317V2.21748C35.1317 -0.102547 33.2341 -2 30.9141 -2H35.1315C37.4514 -2 39.349 -0.102547 39.349 2.21748V6.92927H39.3492ZM39.3492 55.4462H35.1317V65.7825C35.1317 68.1025 33.2341 70 30.9142 70H35.1317C37.4516 70 39.3492 68.1025 39.3492 65.7825V55.4462Z" fill="#365E7D"/>
<path fill-rule="evenodd" clip-rule="evenodd" d="M19.8055 65.7824C21.4878 65.7824 22.863 64.4071 22.863 62.725C22.863 61.0387 21.4878 59.6636 19.8055 59.6636C18.1193 59.6636 16.7441 61.0389 16.7441 62.725C16.7441 64.4071 18.1193 65.7824 19.8055 65.7824Z" fill="#2B4D66"/>
<path d="M16.4997 3.52103C15.9177 3.52103 15.4434 3.0467 15.4434 2.46465C15.4434 1.8826 15.9177 1.41235 16.4997 1.41235H23.1088C23.6909 1.41235 24.1613 1.88274 24.1613 2.46465C24.1613 3.0467 23.6909 3.52103 23.1088 3.52103H16.4997Z" fill="#2B4D66"/>
<path d="M22.9746 14.3753V14.3753C22.9745 13.4124 23.7665 12.6191 24.7346 12.6191H57.4818C58.4499 12.6191 59.2419 13.4124 59.2419 14.3753V37.667C59.2419 38.6301 58.4499 39.4232 57.4818 39.4232H34.1542C33.4593 39.4232 32.8579 39.6714 32.3617 40.1676L26.6379 45.8914V40.7683C26.6379 40.4281 26.5478 40.0772 26.2944 39.8093C26.0364 39.5366 25.679 39.4232 25.2968 39.4232H24.7347C23.7666 39.4232 22.9746 38.63 22.9746 37.667V14.3753Z" fill="#F9F6F6" stroke="black"/>
<g clip-path="url(#clip0)">
<path d="M49.825 29.8391L40.2895 20.3036C39.0986 19.1127 37.4833 18.4436 35.799 18.4436H33.405L28.9805 26.1791L39.2349 36.4336L41.3701 34.2985L41.7794 34.7078C42.3738 35.3021 43.3374 35.3021 43.9318 34.7078C44.5261 34.1134 44.5261 33.1498 43.9318 32.5554L44.9431 33.5668C45.5375 34.1611 46.5012 34.1611 47.0955 33.5668C47.6899 32.9724 47.6899 32.0087 47.0955 31.4144L47.6726 31.9915C48.2671 32.5859 49.2307 32.5859 49.825 31.9915C50.4194 31.3971 50.4194 30.4335 49.825 29.8391Z" fill="#FFCBBE"/>
<path d="M46.562 17.1316H44.1296H40.185C39.5237 17.1316 38.8896 17.3943 38.422 17.8618L36.1391 20.1447C35.5448 20.7391 35.5448 21.7028 36.1391 22.2971C36.7335 22.8915 37.6971 22.8915 38.2915 22.2971L40.2908 20.2978L48.044 28.0575L51.045 25.0565L46.562 17.1316Z" fill="#FFBF9E"/>
<path d="M28.0598 26.1139L25.9934 24.9208C25.6037 24.6959 25.4703 24.1977 25.6952 23.8081L29.8522 16.6079C30.0772 16.2182 30.5754 16.0848 30.965 16.3097L33.0314 17.5028C33.4211 17.7277 33.5546 18.2259 33.3296 18.6155L29.1726 25.8157C28.9476 26.2054 28.4494 26.3388 28.0598 26.1139Z" fill="#F6838D"/>
<path d="M51.9397 24.8766L54.0061 23.6836C54.3957 23.4587 54.5292 22.9605 54.3043 22.5708L50.1472 15.3706C49.9222 14.9809 49.424 14.8475 49.0344 15.0724L46.968 16.2655C46.5784 16.4904 46.4449 16.9886 46.6698 17.3782L50.8268 24.5784C51.0518 24.9681 51.55 25.1016 51.9397 24.8766Z" fill="#91DEF5"/>
<path d="M40.6757 35.7573L39.8423 36.5908C39.2479 37.1852 38.2843 37.1852 37.6899 36.5908C37.0956 35.9964 37.0956 35.0328 37.6899 34.4384L38.5234 33.6049C39.1177 33.0106 40.0814 33.0106 40.6757 33.6049C41.2701 34.1993 41.2701 35.163 40.6757 35.7573Z" fill="#FFBF9E"/>
<path d="M38.5234 33.605L37.6899 34.4385C37.0956 35.0328 36.1319 35.0328 35.5376 34.4385C34.9432 33.8441 34.9432 32.8804 35.5376 32.2861L36.371 31.4526C36.9654 30.8582 37.929 30.8582 38.5234 31.4526C39.1178 32.047 39.1178 33.0106 38.5234 33.605Z" fill="#FFBF9E"/>
<path d="M36.3711 31.4524L35.5376 32.2859C34.9432 32.8802 33.9796 32.8802 33.3852 32.2859C32.7909 31.6915 32.7909 30.7278 33.3852 30.1335L34.2187 29.3C34.813 28.7057 35.7767 28.7057 36.3711 29.3C36.9654 29.8943 36.9654 30.858 36.3711 31.4524Z" fill="#FFBF9E"/>
<path d="M34.0647 29.4543L33.5591 29.96C32.9647 30.5543 32.0011 30.5543 31.4067 29.96C30.8123 29.3656 30.8123 28.402 31.4067 27.8076L31.9124 27.302C32.5067 26.7076 33.4704 26.7076 34.0647 27.302C34.6591 27.8963 34.6591 28.86 34.0647 29.4543Z" fill="#FFBF9E"/>
<path d="M54.8118 22.2779L54.0303 20.9244C53.8685 20.6442 53.5104 20.5482 53.2299 20.7099C52.9497 20.8717 52.8537 21.2301 53.0155 21.5103L53.7969 22.8638C53.8382 22.9352 53.829 23.0032 53.8199 23.0373C53.8107 23.0715 53.7846 23.135 53.7133 23.1762L51.6469 24.3692C51.5375 24.4322 51.3975 24.3946 51.3344 24.2855L47.1773 17.0854C47.1143 16.9762 47.1519 16.836 47.2611 16.7729L49.3274 15.5799C49.4366 15.517 49.5769 15.5544 49.6399 15.6636L50.3789 16.9435C50.5407 17.2238 50.899 17.3199 51.1792 17.158C51.4595 16.9962 51.5555 16.6379 51.3937 16.3576L50.6547 15.0777C50.2687 14.409 49.4105 14.1789 48.7416 14.5651L46.6752 15.7581C46.3612 15.9394 46.144 16.2247 46.0418 16.5455H40.1838C39.3613 16.5455 38.5881 16.8658 38.0064 17.4474L37.4062 18.0476C36.8799 17.9221 36.3408 17.8576 35.7986 17.8576H33.9796C33.8888 17.5066 33.663 17.1907 33.3249 16.9954L31.2585 15.8024C30.9345 15.6153 30.5569 15.5657 30.1957 15.6625C29.8344 15.7593 29.5323 15.9911 29.3453 16.315L25.1883 23.5152C25.0012 23.8392 24.9515 24.2166 25.0483 24.578C25.1451 24.9394 25.3769 25.2414 25.7009 25.4284L27.7673 26.6215C27.9873 26.7485 28.2277 26.8088 28.4652 26.8088C28.5517 26.8088 28.6378 26.8005 28.7224 26.7847L30.4137 28.4761C30.3878 28.6091 30.3744 28.7454 30.3744 28.8839C30.3744 29.4469 30.5937 29.9763 30.9918 30.3744C31.373 30.7555 31.8651 30.9596 32.3651 30.9872C32.3575 31.0607 32.3533 31.1348 32.3533 31.2097C32.3533 31.7728 32.5725 32.3021 32.9707 32.7002C33.3688 33.0983 33.8981 33.3176 34.4611 33.3176C34.4764 33.3176 34.4915 33.3168 34.5068 33.3165C34.5064 33.3317 34.5057 33.3468 34.5057 33.3621C34.5057 33.9252 34.7249 34.4545 35.1231 34.8526C35.5212 35.2507 36.0505 35.4699 36.6135 35.4699C36.6288 35.4699 36.6439 35.4692 36.6592 35.4688C36.6588 35.4841 36.658 35.4992 36.658 35.5145C36.658 36.0775 36.8773 36.6069 37.2754 37.0049C37.6736 37.403 38.2029 37.6223 38.7659 37.6223C39.3289 37.6223 39.8583 37.4031 40.2563 37.0049L41.0899 36.1715C41.3343 35.9271 41.5054 35.6369 41.6044 35.3285C41.9747 35.6018 42.4148 35.7385 42.855 35.7384C43.3947 35.7384 43.9346 35.5329 44.3454 35.122C44.5913 34.8762 44.7686 34.5802 44.8686 34.2573C45.2078 34.4791 45.604 34.5984 46.0187 34.5984C46.5817 34.5984 47.1111 34.3791 47.5091 33.981C47.805 33.6851 48.0018 33.3168 48.0836 32.916C48.2952 32.9861 48.5188 33.0231 48.7482 33.0231C49.3112 33.0231 49.8406 32.8038 50.2387 32.4056C51.0605 31.5838 51.0605 30.2465 50.2387 29.4247L48.8712 28.0571L51.3674 25.5609C51.4228 25.5676 51.4786 25.5713 51.5347 25.5713C51.7722 25.5713 52.0126 25.511 52.2326 25.384L54.299 24.191C54.623 24.0039 54.8548 23.7019 54.9516 23.3405C55.0485 22.9791 54.9988 22.6019 54.8118 22.2779ZM26.2867 24.4136C26.2154 24.3724 26.1894 24.3089 26.1802 24.2747C26.1711 24.2406 26.1619 24.1726 26.2031 24.1012L30.3602 16.9009C30.4014 16.8296 30.4649 16.8036 30.499 16.7944C30.5136 16.7906 30.5344 16.7866 30.5589 16.7866C30.5918 16.7866 30.6316 16.7937 30.6725 16.8173L32.7389 18.0103C32.8481 18.0734 32.8857 18.2135 32.8227 18.3227L28.6656 25.5229C28.6025 25.6321 28.4625 25.6697 28.3532 25.6066L26.2867 24.4136ZM31.5463 28.8839C31.5463 28.6338 31.6436 28.3988 31.8205 28.2219L32.3261 27.7163C32.5086 27.5338 32.7483 27.4426 32.988 27.4426C33.2277 27.4426 33.4674 27.5338 33.6499 27.7163C33.8267 27.8931 33.9241 28.1281 33.9241 28.3782C33.9241 28.6282 33.8267 28.8632 33.6499 29.04L33.1442 29.5457C32.7793 29.9107 32.1854 29.9106 31.8205 29.5457C31.6436 29.3689 31.5463 29.1339 31.5463 28.8839ZM34.4612 32.1457C34.2111 32.1457 33.9761 32.0484 33.7993 31.8716C33.6225 31.6948 33.5251 31.4597 33.5251 31.2097C33.5251 30.9597 33.6225 30.7246 33.7993 30.5479L34.6328 29.7144C34.8153 29.5319 35.055 29.4407 35.2947 29.4407C35.5344 29.4407 35.7741 29.5319 35.9566 29.7144C36.1334 29.8912 36.2308 30.1262 36.2308 30.3763C36.2308 30.6263 36.1334 30.8613 35.9566 31.0381L35.1231 31.8716C34.9463 32.0484 34.7112 32.1457 34.4612 32.1457ZM36.6136 34.2982C36.3635 34.2982 36.1285 34.2008 35.9517 34.024C35.7749 33.8472 35.6775 33.6122 35.6775 33.3622C35.6775 33.1121 35.7749 32.8771 35.9517 32.7002L36.7852 31.8668C36.9676 31.6843 37.2073 31.5931 37.447 31.5931C37.6867 31.5931 37.9265 31.6843 38.109 31.8668C38.2858 32.0436 38.3832 32.2787 38.3832 32.5287C38.3832 32.7787 38.2858 33.0138 38.109 33.1905L37.2755 34.024C37.0987 34.2008 36.8636 34.2982 36.6136 34.2982ZM40.2613 35.3429L39.4278 36.1764C39.251 36.3532 39.016 36.4506 38.7659 36.4506C38.5159 36.4506 38.2809 36.3532 38.1041 36.1764C37.9273 35.9996 37.8299 35.7646 37.8299 35.5146C37.8299 35.2645 37.9273 35.0295 38.1041 34.8527L38.9376 34.0192C39.12 33.8367 39.3597 33.7455 39.5995 33.7455C39.8391 33.7455 40.0789 33.8368 40.2613 34.0192C40.6263 34.3841 40.6263 34.9779 40.2613 35.3429ZM49.4102 31.5772C49.2334 31.754 48.9984 31.8514 48.7483 31.8514C48.4983 31.8514 48.2633 31.754 48.0865 31.5772L42.4939 25.9846C42.2651 25.7558 41.8942 25.7558 41.6652 25.9846C41.4364 26.2134 41.4364 26.5844 41.6652 26.8132L46.6807 31.8287C46.8575 32.0055 46.9549 32.2405 46.9549 32.4905C46.9549 32.7406 46.8575 32.9756 46.6807 33.1525C46.5039 33.3292 46.2689 33.4266 46.0188 33.4266C45.7687 33.4266 45.5337 33.3292 45.357 33.1525L39.3301 27.1256C39.1013 26.8969 38.7303 26.8969 38.5015 27.1256C38.2727 27.3544 38.2727 27.7254 38.5015 27.9542L43.5169 32.9698C43.6938 33.1465 43.7911 33.3816 43.7911 33.6316C43.7911 33.8816 43.6938 34.1167 43.5169 34.2935C43.152 34.6584 42.5582 34.6586 42.1932 34.2935L41.0901 33.1904C41.0886 33.1889 41.0869 33.1876 41.0854 33.1861C40.6634 32.7667 40.1068 32.5634 39.5539 32.5753C39.5542 32.5598 39.555 32.5443 39.555 32.5287C39.555 31.9657 39.3358 31.4363 38.9376 31.0382C38.5151 30.6157 37.9564 30.411 37.4015 30.4229C37.4018 30.4074 37.4026 30.3919 37.4026 30.3763C37.4026 29.8132 37.1833 29.2839 36.7852 28.8858C36.3231 28.4237 35.6981 28.2215 35.0935 28.279C35.0693 27.7533 34.8531 27.2624 34.4785 26.8878C33.6566 26.0659 32.3193 26.0661 31.4974 26.8878L30.9918 27.3934C30.9912 27.394 30.9906 27.3946 30.99 27.3952L29.6889 26.0941L33.7677 19.0295H35.7985C35.9975 19.0295 36.1959 19.04 36.3933 19.0605L35.7235 19.7303C35.3254 20.1284 35.1061 20.6578 35.1061 21.2208C35.1061 21.7839 35.3254 22.3132 35.7235 22.7113C36.1345 23.1222 36.6743 23.3277 37.214 23.3277C37.7538 23.3277 38.2936 23.1223 38.7045 22.7113L40.2862 21.1296L49.4102 30.2534C49.7751 30.6184 49.7751 31.2122 49.4102 31.5772ZM43.7808 22.9668C44.6335 22.3497 45.1561 21.3539 45.1561 20.272C45.1561 19.9484 44.8937 19.686 44.5702 19.686C44.2466 19.686 43.9843 19.9484 43.9843 20.272C43.9843 21.0374 43.58 21.7355 42.9349 22.1209L40.7033 19.8893C40.4744 19.6605 40.1041 19.6545 39.8752 19.8833L37.8759 21.8827C37.5109 22.2476 36.9171 22.2476 36.5521 21.8827C36.3753 21.7059 36.2779 21.4708 36.2779 21.2208C36.2779 20.9708 36.3753 20.7357 36.5521 20.5589L38.835 18.276C39.1953 17.9157 39.6742 17.7174 40.1838 17.7174H46.1891L50.3196 24.8715C50.3294 24.8885 50.34 24.9046 50.3504 24.9209L48.0427 27.2286L43.7808 22.9668Z" fill="black"/>
<path d="M52.2051 19.5203C52.3592 19.5203 52.5098 19.4576 52.6193 19.3486C52.7283 19.239 52.791 19.0884 52.791 18.9343C52.791 18.7796 52.7283 18.6291 52.6193 18.5195C52.5098 18.4105 52.3592 18.3484 52.2051 18.3484C52.0504 18.3484 51.8998 18.4105 51.7908 18.5195C51.6812 18.6291 51.6191 18.7796 51.6191 18.9343C51.6191 19.0884 51.6812 19.239 51.7908 19.3486C51.8998 19.4576 52.0504 19.5203 52.2051 19.5203Z" fill="black"/>
</g>
<defs>
<clipPath id="clip0">
<rect width="30" height="30" fill="white" transform="translate(25 11)"/>
</clipPath>
</defs>
</svg>
