<svg width="54" height="72" viewBox="0 0 54 72" fill="none" xmlns="http://www.w3.org/2000/svg">
<path d="M4.47334 0.5H35.1317C37.1755 0.5 38.8492 2.17361 38.8492 4.21748V67.7825C38.8492 69.8264 37.1755 71.5 35.1317 71.5H4.47334C2.42946 71.5 0.755859 69.8264 0.755859 67.7825V4.21751C0.755859 4.2175 0.755859 4.21749 0.755859 4.21748C0.756 2.17356 2.42949 0.5 4.47334 0.5Z" fill="#CBE2FF" stroke="black"/>
<path fill-rule="evenodd" clip-rule="evenodd" d="M35.1309 8.9292H39.3483V57.4461H35.1309V8.9292Z" fill="#9DC6FB"/>
<path d="M38.851 8.42927H38.8167H38.7403H38.664H38.5876H38.5112H38.4349H38.3585H38.2822H38.2058H38.1295H38.0531H37.9768H37.9004H37.8241H37.7477H37.6713H37.595H37.5186H37.4423H37.3659H37.2896H37.2132H37.1369H37.0605H36.9842H36.9078H36.8314H36.7551H36.6787H36.6024H36.526H36.4497H36.3733H36.297H36.2206H36.1443H36.0679H35.9916H35.9152H35.8388H35.7625H35.6861H35.6098H35.5334H35.4571H35.3807H35.3044H35.228H35.1517H35.0753H34.9989H34.9226H34.8462H34.7699H34.6935H34.6172H34.5408H34.4645H34.3881H34.3118H34.2354H34.159H34.0827H34.0063H33.93H33.8536H33.7773H33.7009H33.6246H33.5482H33.4719H33.3955H33.3192H33.2428H33.1664H33.0901H33.0137H32.9374H32.861H32.7847H32.7083H32.632H32.5556H32.4793H32.4029H32.3265H32.2502H32.1738H32.0975H32.0211H31.9448H31.8684H31.7921H31.7157H31.6394H31.563H31.4867H31.4103H31.3339H31.2576H31.1812H31.1049H31.0285H30.9522H30.8758H30.7995H30.7231H30.6468H30.5704H30.494H30.4177H30.3413H30.265H30.1886H30.1123H30.0359H29.9596H29.8832H29.8069H29.7305H29.6542H29.5778H29.5014H29.4251H29.3487H29.2724H29.196H29.1197H29.0433H28.967H28.8906H28.8143H28.7379H28.6615H28.5852H28.5088H28.4325H28.3561H28.2798H28.2034H28.1271H28.0507H27.9744H27.898H27.8217H27.7453H27.6689H27.5926H27.5162H27.4399H27.3635H27.2872H27.2108H27.1345H27.0581H26.9818H26.9054H26.8291H26.7527H26.6763H26.6H26.5236H26.4473H26.3709H26.2946H26.2182H26.1419H26.0655H25.9892H25.9128H25.8364H25.7601H25.6837H25.6074H25.531H25.4547H25.3783H25.302H25.2256H25.1493H25.0729H24.9966H24.9202H24.8438H24.7675H24.6911H24.6148H24.5384H24.4621H24.3857H24.3094H24.233H24.1567H24.0803H24.004H23.9276H23.8512H23.7749H23.6985H23.6222H23.5458H23.4695H23.3931H23.3168H23.2404H23.1641H23.0877H23.0113H22.935H22.8586H22.7823H22.7059H22.6296H22.5532H22.4769H22.4005H22.3242H22.2478H22.1715H22.0951H22.0187H21.9424H21.866H21.7897H21.7133H21.637H21.5606H21.4843H21.4079H21.3316H21.2552H21.1789H21.1025H21.0261H20.9498H20.8734H20.7971H20.7207H20.6444H20.568H20.4917H20.4153H20.339H20.2626H20.1862H20.1099H20.0335H19.9572H19.8808H19.8045H19.7281H19.6518H19.5754H19.4991H19.4227H19.3464H19.27H19.1936H19.1173H19.0409H18.9646H18.8882H18.8119H18.7355H18.6592H18.5828H18.5065H18.4301H18.3538H18.2774H18.201H18.1247H18.0483H17.972H17.8956H17.8193H17.7429H17.6666H17.5902H17.5139H17.4375H17.3611H17.2848H17.2084H17.1321H17.0557H16.9794H16.903H16.8267H16.7503H16.674H16.5976H16.5213H16.4449H16.3685H16.2922H16.2158H16.1395H16.0631H15.9868H15.9104H15.8341H15.7577H15.6814H15.605H15.5287H15.4523H15.3759H15.2996H15.2232H15.1469H15.0705H14.9942H14.9178H14.8415H14.7651H14.6888H14.6124H14.536H14.4597H14.3833H14.307H14.2306H14.1543H14.0779H14.0016H13.9252H13.8489H13.7725H13.6962H13.6198H13.5434H13.4671H13.3907H13.3144H13.238H13.1617H13.0853H13.009H12.9326H12.8563H12.7799H12.7036H12.6272H12.5508H12.4745H12.3981H12.3218H12.2454H12.1691H12.0927H12.0164H11.94H11.8637H11.7873H11.7109H11.6346H11.5582H11.4819H11.4055H11.3292H11.2528H11.1765H11.1001H11.0238H10.9474H10.8711H10.7947H10.7183H10.642H10.5656H10.4893H10.4129H10.3366H10.2602H10.1839H10.1075H10.0312H9.9548H9.87845H9.8021H9.72574H9.64939H9.57303H9.49668H9.42033H9.34397H9.26762H9.19126H9.11491H9.03855H8.9622H8.88585H8.80949H8.73314H8.65678H8.58043H8.50408H8.42772H8.35137H8.27501H8.19866H8.1223H8.04595H7.9696H7.89324H7.81689H7.74053H7.66418H7.58783H7.51147H7.43512H7.35876H7.28241H7.20605H7.1297H7.05335H6.97699H6.90064H6.82428H6.74793H6.67158H6.59522H6.51887H6.44251H6.36616H6.2898H6.21345H6.1371H6.06074H5.98439H5.90803H5.83168H5.75532H5.67897H5.60262H5.52626H5.44991H5.37355H5.2972H5.22084H5.14449H5.06814H4.99178H4.91543H4.83907H4.76272H4.68636H4.61001H4.53366H4.4573H4.38095H4.30459H4.22824H4.15188H4.07553H3.99918H3.92282H3.84647H3.77011H3.69376H3.6174H3.54105H3.4647H3.38834H3.31199H3.23563H3.15928H3.08292H3.00657H2.93022H2.85386H2.77751H2.70115H2.6248H2.54844H2.47209H2.39574H2.31938H2.24303H2.16667H2.09032H2.01396H1.93761H1.86125H1.7849H1.70855H1.63219H1.55584H1.47948H1.40313H1.32677H1.25042H1.17407H1.09771H1.02136H0.945002H0.868648H0.792293H0.757812V4.21748C0.757812 2.17357 2.43129 0.5 4.47516 0.5H35.1335C37.1773 0.5 38.851 2.17361 38.851 4.21748V8.42927ZM0.757812 67.7825V57.9462H0.792293H0.868648H0.945002H1.02136H1.09771H1.17407H1.25042H1.32677H1.40313H1.47948H1.55584H1.63219H1.70855H1.7849H1.86125H1.93761H2.01396H2.09032H2.16667H2.24303H2.31938H2.39574H2.47209H2.54844H2.6248H2.70115H2.77751H2.85386H2.93022H3.00657H3.08292H3.15928H3.23563H3.31199H3.38834H3.4647H3.54105H3.6174H3.69376H3.77011H3.84647H3.92282H3.99918H4.07553H4.15188H4.22824H4.30459H4.38095H4.4573H4.53366H4.61001H4.68636H4.76272H4.83907H4.91543H4.99178H5.06814H5.14449H5.22084H5.2972H5.37355H5.44991H5.52626H5.60262H5.67897H5.75532H5.83168H5.90803H5.98439H6.06074H6.1371H6.21345H6.2898H6.36616H6.44251H6.51887H6.59522H6.67158H6.74793H6.82428H6.90064H6.97699H7.05335H7.1297H7.20605H7.28241H7.35876H7.43512H7.51147H7.58783H7.66418H7.74053H7.81689H7.89324H7.9696H8.04595H8.1223H8.19866H8.27501H8.35137H8.42772H8.50408H8.58043H8.65678H8.73314H8.80949H8.88585H8.9622H9.03855H9.11491H9.19126H9.26762H9.34397H9.42033H9.49668H9.57303H9.64939H9.72574H9.8021H9.87845H9.9548H10.0312H10.1075H10.1839H10.2602H10.3366H10.4129H10.4893H10.5656H10.642H10.7183H10.7947H10.8711H10.9474H11.0238H11.1001H11.1765H11.2528H11.3292H11.4055H11.4819H11.5582H11.6346H11.7109H11.7873H11.8637H11.94H12.0164H12.0927H12.1691H12.2454H12.3218H12.3981H12.4745H12.5508H12.6272H12.7036H12.7799H12.8563H12.9326H13.009H13.0853H13.1617H13.238H13.3144H13.3907H13.4671H13.5434H13.6198H13.6962H13.7725H13.8489H13.9252H14.0016H14.0779H14.1543H14.2306H14.307H14.3833H14.4597H14.536H14.6124H14.6888H14.7651H14.8415H14.9178H14.9942H15.0705H15.1469H15.2232H15.2996H15.3759H15.4523H15.5287H15.605H15.6814H15.7577H15.8341H15.9104H15.9868H16.0631H16.1395H16.2158H16.2922H16.3685H16.4449H16.5213H16.5976H16.674H16.7503H16.8267H16.903H16.9794H17.0557H17.1321H17.2084H17.2848H17.3611H17.4375H17.5139H17.5902H17.6666H17.7429H17.8193H17.8956H17.972H18.0483H18.1247H18.201H18.2774H18.3538H18.4301H18.5065H18.5828H18.6592H18.7355H18.8119H18.8882H18.9646H19.0409H19.1173H19.1936H19.27H19.3464H19.4227H19.4991H19.5754H19.6518H19.7281H19.8045H19.8808H19.9572H20.0335H20.1099H20.1862H20.2626H20.339H20.4153H20.4917H20.568H20.6444H20.7207H20.7971H20.8734H20.9498H21.0261H21.1025H21.1789H21.2552H21.3316H21.4079H21.4843H21.5606H21.637H21.7133H21.7897H21.866H21.9424H22.0187H22.0951H22.1715H22.2478H22.3242H22.4005H22.4769H22.5532H22.6296H22.7059H22.7823H22.8586H22.935H23.0113H23.0877H23.1641H23.2404H23.3168H23.3931H23.4695H23.5458H23.6222H23.6985H23.7749H23.8512H23.9276H24.004H24.0803H24.1567H24.233H24.3094H24.3857H24.4621H24.5384H24.6148H24.6911H24.7675H24.8438H24.9202H24.9966H25.0729H25.1493H25.2256H25.302H25.3783H25.4547H25.531H25.6074H25.6837H25.7601H25.8364H25.9128H25.9892H26.0655H26.1419H26.2182H26.2946H26.3709H26.4473H26.5236H26.6H26.6763H26.7527H26.8291H26.9054H26.9818H27.0581H27.1345H27.2108H27.2872H27.3635H27.4399H27.5162H27.5926H27.6689H27.7453H27.8217H27.898H27.9744H28.0507H28.1271H28.2034H28.2798H28.3561H28.4325H28.5088H28.5852H28.6615H28.7379H28.8143H28.8906H28.967H29.0433H29.1197H29.196H29.2724H29.3487H29.4251H29.5014H29.5778H29.6542H29.7305H29.8069H29.8832H29.9596H30.0359H30.1123H30.1886H30.265H30.3413H30.4177H30.494H30.5704H30.6468H30.7231H30.7995H30.8758H30.9522H31.0285H31.1049H31.1812H31.2576H31.3339H31.4103H31.4867H31.563H31.6394H31.7157H31.7921H31.8684H31.9448H32.0211H32.0975H32.1738H32.2502H32.3265H32.4029H32.4793H32.5556H32.632H32.7083H32.7847H32.861H32.9374H33.0137H33.0901H33.1664H33.2428H33.3192H33.3955H33.4719H33.5482H33.6246H33.7009H33.7773H33.8536H33.93H34.0063H34.0827H34.159H34.2354H34.3118H34.3881H34.4645H34.5408H34.6172H34.6935H34.7699H34.8462H34.9226H34.9989H35.0753H35.1517H35.228H35.3044H35.3807H35.4571H35.5334H35.6098H35.6861H35.7625H35.8388H35.9152H35.9916H36.0679H36.1443H36.2206H36.297H36.3733H36.4497H36.526H36.6024H36.6787H36.7551H36.8314H36.9078H36.9842H37.0605H37.1369H37.2132H37.2896H37.3659H37.4423H37.5186H37.595H37.6713H37.7477H37.8241H37.9004H37.9768H38.0531H38.1295H38.2058H38.2822H38.3585H38.4349H38.5112H38.5876H38.664H38.7403H38.8167H38.8511V67.7825C38.8511 69.8264 37.1774 71.5 35.1337 71.5H4.4753C2.43141 71.5 0.757812 69.8264 0.757812 67.7825Z" fill="#407093" stroke="black"/>
<path fill-rule="evenodd" clip-rule="evenodd" d="M39.3492 8.92927H35.1317V4.21748C35.1317 1.89745 33.2341 0 30.9141 0H35.1315C37.4514 0 39.349 1.89745 39.349 4.21748V8.92927H39.3492ZM39.3492 57.4462H35.1317V67.7825C35.1317 70.1025 33.2341 72 30.9142 72H35.1317C37.4516 72 39.3492 70.1025 39.3492 67.7825V57.4462Z" fill="#365E7D"/>
<path fill-rule="evenodd" clip-rule="evenodd" d="M19.8055 67.7824C21.4878 67.7824 22.863 66.4071 22.863 64.725C22.863 63.0387 21.4878 61.6636 19.8055 61.6636C18.1193 61.6636 16.7441 63.0389 16.7441 64.725C16.7441 66.4071 18.1193 67.7824 19.8055 67.7824Z" fill="#2B4D66"/>
<g clip-path="url(#clip0)">
<path d="M38.5878 25.2462C46.7122 25.1221 53.3403 31.5142 53.4976 39.6371C53.5207 40.8304 53.4014 41.9913 53.1559 43.1042C52.7196 45.0822 52.4586 47.1024 52.4586 49.1412V52.9998C52.4586 53.3148 52.2032 53.5702 51.8882 53.5702H48.0296C45.9909 53.5702 43.9707 53.8312 41.9927 54.2675C40.8798 54.513 39.719 54.6323 38.5256 54.6091C30.4028 54.4519 24.0107 47.8241 24.1346 39.6998C24.2554 31.7717 30.6598 25.3673 38.5878 25.2462Z" fill="url(#paint0_linear)" stroke="black"/>
<path d="M38.5801 24.7462C46.9794 24.6179 53.8349 31.2287 53.9975 39.6274C54.0214 40.8605 53.8981 42.0607 53.6442 43.212C53.2142 45.1613 52.9586 47.1449 52.9586 49.1412V52.9998C52.9586 53.591 52.4794 54.0702 51.8882 54.0702H48.0296C46.0334 54.0702 44.0497 54.3258 42.1004 54.7558C40.9492 55.0097 39.749 55.1329 38.5159 55.109C30.1173 54.9465 23.5065 48.0913 23.6346 39.6922C23.7596 31.4939 30.382 24.8715 38.5801 24.7462Z" fill="url(#paint1_linear)"/>
<path d="M26.7861 10.8904L26.7785 11.3904C16.8207 11.2382 8.69631 19.0732 8.50344 29.0293L26.7861 10.8904ZM26.7861 10.8904L26.7785 11.3904C36.4959 11.5387 44.3456 19.3886 44.4939 29.1061C44.6457 39.0638 36.8107 47.1879 26.8547 47.3806C25.3924 47.409 23.9695 47.2627 22.6052 46.9618C20.2018 46.4317 17.7485 46.1149 15.2741 46.1149H10.5733C10.1292 46.1149 9.76925 45.7549 9.76925 45.3108V40.6101C9.76925 38.1356 9.45243 35.6823 8.92233 33.2789L8.92232 33.2789M26.7861 10.8904L8.92232 33.2789M8.92232 33.2789C8.62135 31.9147 8.47519 30.4918 8.50344 29.0294L8.92232 33.2789Z" fill="url(#paint2_linear)" stroke="black"/>
<path d="M19.8759 28.3944C19.3534 27.8392 18.6138 27.4905 17.791 27.4905C16.2086 27.4905 14.9258 28.7733 14.9258 30.3557C14.9258 31.1784 15.2744 31.918 15.8297 32.4406L22.0104 38.6213C22.533 39.1765 23.2726 39.5252 24.0953 39.5252C25.6777 39.5252 26.9605 38.2424 26.9605 36.66C26.9605 35.8373 26.6118 35.0977 26.0566 34.5751L19.8759 28.3944Z" fill="url(#paint3_linear)"/>
<path d="M17.791 33.2206C19.3734 33.2206 20.6562 31.9379 20.6562 30.3554C20.6562 28.773 19.3734 27.4902 17.791 27.4902C16.2086 27.4902 14.9258 28.773 14.9258 30.3554C14.9258 31.9379 16.2086 33.2206 17.791 33.2206Z" fill="white"/>
<path d="M27.9794 28.3944C27.4569 27.8392 26.7173 27.4905 25.8945 27.4905C24.3121 27.4905 23.0293 28.7733 23.0293 30.3557C23.0293 31.1784 23.3779 31.918 23.9332 32.4406L30.1139 38.6213C30.6365 39.1765 31.3761 39.5252 32.1988 39.5252C33.7812 39.5252 35.064 38.2424 35.064 36.66C35.064 35.8373 34.7153 35.0977 34.1601 34.5751L27.9794 28.3944Z" fill="url(#paint4_linear)"/>
<path d="M25.8945 33.2206C27.4769 33.2206 28.7597 31.9379 28.7597 30.3554C28.7597 28.773 27.4769 27.4902 25.8945 27.4902C24.3121 27.4902 23.0293 28.773 23.0293 30.3554C23.0293 31.9379 24.3121 33.2206 25.8945 33.2206Z" fill="white"/>
<path d="M36.0829 28.3944C35.5604 27.8392 34.8208 27.4905 33.998 27.4905C32.4156 27.4905 31.1328 28.7733 31.1328 30.3557C31.1328 31.1784 31.4815 31.918 32.0367 32.4406L38.2174 38.6213C38.74 39.1765 39.4796 39.5252 40.3023 39.5252C41.8848 39.5252 43.1675 38.2424 43.1675 36.66C43.1675 35.8373 42.8189 35.0977 42.2636 34.5751L36.0829 28.3944Z" fill="url(#paint5_linear)"/>
<path d="M33.998 33.2206C35.5804 33.2206 36.8632 31.9379 36.8632 30.3554C36.8632 28.773 35.5804 27.4902 33.998 27.4902C32.4156 27.4902 31.1328 28.773 31.1328 30.3554C31.1328 31.9379 32.4156 33.2206 33.998 33.2206Z" fill="white"/>
</g>
<path d="M16.4997 5.52103C15.9177 5.52103 15.4434 5.0467 15.4434 4.46465C15.4434 3.8826 15.9177 3.41235 16.4997 3.41235H23.1088C23.6909 3.41235 24.1613 3.88274 24.1613 4.46465C24.1613 5.0467 23.6909 5.52103 23.1088 5.52103H16.4997Z" fill="#2B4D66"/>
<defs>
<linearGradient id="paint0_linear" x1="35.7515" y1="36.8641" x2="58.0439" y2="59.1564" gradientUnits="userSpaceOnUse">
<stop stop-color="#A7F3CE"/>
<stop offset="1" stop-color="#61DB99"/>
</linearGradient>
<linearGradient id="paint1_linear" x1="43.0489" y1="44.161" x2="33.5803" y2="34.6934" gradientUnits="userSpaceOnUse">
<stop stop-color="#61DB99" stop-opacity="0"/>
<stop offset="1" stop-color="#009E74"/>
</linearGradient>
<linearGradient id="paint2_linear" x1="19.7398" y1="26.3956" x2="43.2759" y2="49.9317" gradientUnits="userSpaceOnUse">
<stop stop-color="#62E1FB"/>
<stop offset="1" stop-color="#00A2F3"/>
</linearGradient>
<linearGradient id="paint3_linear" x1="24.1647" y1="36.7299" x2="11.7725" y2="24.3382" gradientUnits="userSpaceOnUse">
<stop stop-color="#00A2F3" stop-opacity="0"/>
<stop offset="1" stop-color="#0075CD"/>
</linearGradient>
<linearGradient id="paint4_linear" x1="32.2676" y1="36.7296" x2="19.8759" y2="24.3379" gradientUnits="userSpaceOnUse">
<stop stop-color="#00A2F3" stop-opacity="0"/>
<stop offset="1" stop-color="#0075CD"/>
</linearGradient>
<linearGradient id="paint5_linear" x1="40.3711" y1="36.7298" x2="27.9794" y2="24.338" gradientUnits="userSpaceOnUse">
<stop stop-color="#00A2F3" stop-opacity="0"/>
<stop offset="1" stop-color="#0075CD"/>
</linearGradient>
<clipPath id="clip0">
<rect width="46" height="46" fill="white" transform="translate(8 10)"/>
</clipPath>
</defs>
</svg>
