<svg width="64" height="44" viewBox="0 0 64 44" fill="none" xmlns="http://www.w3.org/2000/svg">
<path d="M18.5281 23.1634C17.8584 23.0315 17.1574 23.0983 16.52 23.3428C15.4143 23.7668 14.2169 24.0043 12.9618 24.0043C11.7066 24.0043 10.5092 23.7666 9.4035 23.3428C8.76612 23.0983 8.06512 23.0316 7.39537 23.1634C3.71475 23.8881 0.9375 27.1253 0.9375 31.0184V34.9274C0.9375 36.5876 2.28338 37.9334 3.9435 37.9334H21.9797C23.64 37.9334 24.9858 36.5875 24.9858 34.9274V31.0184C24.986 27.1253 22.2086 23.8881 18.5281 23.1634Z" fill="#7AD7EE"/>
<path d="M3.9435 35.0262V24.7761C2.11363 26.2425 0.9375 28.4894 0.9375 31.0181V36.0282C0.9375 37.6885 2.28338 39.0342 3.9435 39.0342H21.9797C23.64 39.0342 24.9858 37.6884 24.9858 36.0282H4.94562C4.39212 36.0282 3.9435 35.5796 3.9435 35.0262Z" fill="#4BC3EF"/>
<path d="M12.9613 18.9941C15.7283 18.9941 17.9714 16.751 17.9714 13.984C17.9714 11.217 15.7283 8.97388 12.9613 8.97388C10.1943 8.97388 7.95117 11.217 7.95117 13.984C7.95117 16.751 10.1943 18.9941 12.9613 18.9941Z" fill="#7AD7EE"/>
<path d="M56.6061 23.1634C55.9364 23.0315 55.2354 23.0983 54.598 23.3428C53.4922 23.7668 52.2949 24.0043 51.0397 24.0043C49.7846 24.0043 48.5872 23.7666 47.4815 23.3428C46.8441 23.0983 46.1431 23.0316 45.4734 23.1634C41.7929 23.8881 39.0155 27.1253 39.0156 31.0184V36.0285C39.0156 37.6888 40.3615 39.0345 42.0216 39.0345H60.0579C61.7181 39.0345 63.0639 37.6886 63.0639 36.0285V31.0184C63.0639 27.1253 60.2866 23.8881 56.6061 23.1634Z" fill="#7AD7EE"/>
<path d="M32.0005 14.986C35.8742 14.986 39.0146 11.8457 39.0146 7.97189C39.0146 4.0981 35.8742 0.957764 32.0005 0.957764C28.1267 0.957764 24.9863 4.0981 24.9863 7.97189C24.9863 11.8457 28.1267 14.986 32.0005 14.986Z" fill="#4BC3EF"/>
<path d="M40.0601 19.2592C39.391 19.0828 38.6681 19.1678 38.0563 19.4913C36.2465 20.4484 34.189 20.998 31.999 20.998C29.809 20.998 27.7515 20.4484 25.9416 19.4913C25.3298 19.1678 24.607 19.0827 23.9378 19.2592C20.5033 20.1645 17.9707 23.2913 17.9707 27.0102V39.0344C17.9707 41.248 19.7652 43.0425 21.9788 43.0425H42.0192C44.2328 43.0425 46.0273 41.248 46.0273 39.0344V27.0102C46.0273 23.2913 43.4947 20.1645 40.0601 19.2592Z" fill="#4BC3EF"/>
<path d="M51.0394 18.9941C53.8064 18.9941 56.0495 16.751 56.0495 13.984C56.0495 11.217 53.8064 8.97388 51.0394 8.97388C48.2724 8.97388 46.0293 11.217 46.0293 13.984C46.0293 16.751 48.2724 18.9941 51.0394 18.9941Z" fill="#7AD7EE"/>
<path d="M21.9787 40.0365C21.4258 40.0365 20.9767 39.5868 20.9767 39.0345V20.7563C19.1451 22.2252 17.9707 24.4796 17.9707 27.0103V39.0346C17.9707 41.2481 19.7651 43.0427 21.9788 43.0427H42.0192C43.8847 43.0427 45.4386 41.7623 45.8856 40.0367H21.9787V40.0365Z" fill="#1BADDE"/>
<path d="M34.5036 12.481C30.6299 12.481 27.4895 9.34067 27.4895 5.46692C27.4895 4.1733 27.8457 2.96542 28.4566 1.92505C26.3815 3.1433 24.9844 5.39192 24.9844 7.97205C24.9844 11.8458 28.1247 14.9862 31.9985 14.9862C34.5786 14.9862 36.8272 13.589 38.0455 11.5139C37.0051 12.1247 35.7972 12.481 34.5036 12.481Z" fill="#1BADDE"/>
<path d="M53.5425 16.4891C50.7755 16.4891 48.5323 14.2459 48.5323 11.4789C48.5323 10.7447 48.699 10.0527 48.9827 9.42432C47.2431 10.2099 46.0273 11.9512 46.0273 13.9839C46.0273 16.7509 48.2703 18.9941 51.0375 18.9941C53.0702 18.9941 54.8116 17.7782 55.5972 16.0386C54.9686 16.3224 54.2766 16.4891 53.5425 16.4891Z" fill="#4BC3EF"/>
<path d="M15.4663 16.4891C12.6993 16.4891 10.4562 14.2459 10.4562 11.4789C10.4562 10.7447 10.6228 10.0527 10.9065 9.42432C9.16692 10.2099 7.95117 11.9512 7.95117 13.9839C7.95117 16.7509 10.1942 18.9941 12.9613 18.9941C14.9941 18.9941 16.7354 17.7782 17.5211 16.0386C16.8926 16.3224 16.2004 16.4891 15.4663 16.4891Z" fill="#4BC3EF"/>
<path d="M32.0005 15.9235C36.385 15.9235 39.9521 12.3564 39.9521 7.97189C39.9521 3.58739 36.385 0.0202637 32.0005 0.0202637C27.616 0.0202637 24.0488 3.58739 24.0488 7.97189C24.0488 12.3564 27.616 15.9235 32.0005 15.9235ZM32.0005 1.89526C35.3511 1.89526 38.0771 4.62127 38.0771 7.97189C38.0771 11.3225 35.3511 14.0485 32.0005 14.0485C28.6498 14.0485 25.9238 11.3225 25.9238 7.97189C25.9238 4.62127 28.6498 1.89526 32.0005 1.89526Z" fill="black"/>
<path d="M40.3009 18.3526C39.4126 18.1183 38.4354 18.2313 37.62 18.6626C35.866 19.5902 33.9754 20.0606 32.0009 20.0606C30.0264 20.0606 28.1359 19.5902 26.3818 18.6626C25.5664 18.2314 24.5892 18.1184 23.7009 18.3527C19.7763 19.3872 17.0352 22.9473 17.0352 27.0102V39.0344C17.0352 41.7614 19.2538 43.98 21.9807 43.98H42.0209C44.7479 43.98 46.9664 41.7614 46.9664 39.0344V27.0101C46.9666 22.9472 44.2255 19.3871 40.3009 18.3526ZM45.0916 39.0343C45.0916 40.7274 43.7141 42.1049 42.0211 42.1049H21.9808C20.2877 42.1049 18.9103 40.7274 18.9103 39.0343V27.0101C18.9103 23.7978 21.0769 20.9833 24.1789 20.1656C24.3287 20.1261 24.4835 20.1067 24.6388 20.1067C24.9384 20.1067 25.239 20.1792 25.5054 20.3199C27.5324 21.3919 29.7178 21.9354 32.001 21.9354C34.2843 21.9354 36.4698 21.3919 38.4966 20.3199C38.9009 20.1062 39.3843 20.0498 39.823 20.1656C42.925 20.9833 45.0916 23.7978 45.0916 27.0101V39.0343Z" fill="black"/>
<path d="M51.0375 19.9316C54.317 19.9316 56.9851 17.2635 56.9851 13.984C56.9851 10.7045 54.317 8.03638 51.0375 8.03638C47.758 8.03638 45.0898 10.7044 45.0898 13.984C45.0898 17.2636 47.7578 19.9316 51.0375 19.9316ZM51.0375 9.91138C53.2831 9.91138 55.1101 11.7383 55.1101 13.984C55.1101 16.2298 53.2831 18.0566 51.0375 18.0566C48.7918 18.0566 46.9648 16.2296 46.9648 13.984C46.9648 11.7384 48.7917 9.91138 51.0375 9.91138Z" fill="black"/>
<path d="M56.7867 22.2437C55.9477 22.0784 55.0745 22.1558 54.2619 22.4674C52.9416 22.9737 51.5405 23.1638 50.132 23.0207C49.6164 22.9683 49.1569 23.3434 49.1045 23.8586C49.0521 24.3737 49.4272 24.8337 49.9424 24.8861C51.6429 25.0591 53.339 24.8294 54.9332 24.2182C55.4161 24.0331 55.9319 23.9864 56.4246 24.0834C59.7281 24.7338 62.1259 27.6504 62.1259 31.0184V36.0286C62.1259 37.1692 61.198 38.0971 60.0574 38.0971H50.0372C49.5195 38.0971 49.0997 38.5168 49.0997 39.0346C49.0997 39.5523 49.5195 39.9721 50.0372 39.9721H60.0574C62.2319 39.9721 64.0009 38.2029 64.0009 36.0286V31.0184C64.0009 26.7571 60.967 23.0668 56.7867 22.2437Z" fill="black"/>
<path d="M12.9613 19.9316C16.2408 19.9316 18.9089 17.2635 18.9089 13.984C18.9089 10.7045 16.2408 8.03638 12.9613 8.03638C9.6818 8.03638 7.01367 10.7044 7.01367 13.984C7.01367 17.2636 9.68192 19.9316 12.9613 19.9316ZM12.9613 9.91138C15.2069 9.91138 17.0339 11.7383 17.0339 13.984C17.0339 16.2298 15.2069 18.0566 12.9613 18.0566C10.7157 18.0566 8.88867 16.2296 8.88867 13.984C8.88867 11.7384 10.7158 9.91138 12.9613 9.91138Z" fill="black"/>
<path d="M7.57638 24.0833C8.06888 23.9863 8.58475 24.0329 9.06775 24.2181C10.6619 24.8293 12.358 25.0589 14.0586 24.8859C14.5738 24.8336 14.9489 24.3736 14.8965 23.8584C14.8441 23.3433 14.3833 22.9677 13.869 23.0206C12.4605 23.1638 11.0592 22.9736 9.73913 22.4674C8.9265 22.1558 8.05338 22.0784 7.21425 22.2437C3.03387 23.0668 0 26.7571 0 31.0184V36.0286C0 38.2031 1.769 39.9721 3.9435 39.9721H13.9636C14.4814 39.9721 14.9011 39.5523 14.9011 39.0346C14.9011 38.5168 14.4814 38.0971 13.9636 38.0971H3.9435C2.80288 38.0971 1.875 37.1691 1.875 36.0286V31.0184C1.875 27.6504 4.27275 24.7338 7.57638 24.0833Z" fill="black"/>
</svg>
