<svg width="157" height="407" viewBox="0 0 157 407" fill="none" xmlns="http://www.w3.org/2000/svg">
<path d="M87.7402 204.199C87.1232 201.702 85.8287 199.424 83.9992 197.616C82.1698 195.807 79.8763 194.538 77.3714 193.949C75.1395 147.686 57.1855 103.567 26.4736 68.8765C27.8765 66.6801 28.6377 64.136 28.6715 61.5306C28.7052 58.9253 28.0103 56.3622 26.6649 54.1302L75.6298 5.20385L70.8783 0.456055L21.9133 49.3824C19.8364 48.1294 17.4689 47.4379 15.0435 47.3759C12.6181 47.3139 10.2183 47.8836 8.07997 49.0289C5.94162 50.1742 4.13829 51.8558 2.84725 53.9083C1.5562 55.9608 0.821819 58.3137 0.716346 60.7357C0.610873 63.1577 1.13793 65.5654 2.24566 67.7223C3.35339 69.8791 5.00369 71.7108 7.0344 73.0374C9.0651 74.364 11.4063 75.1398 13.828 75.2886C16.2496 75.4373 18.6682 74.9539 20.8463 73.8859C50.3981 107.279 67.6796 149.737 69.8414 194.26C67.075 195.157 64.6577 196.894 62.9262 199.229C61.1948 201.564 60.2356 204.38 60.1824 207.286C60.1293 210.191 60.9846 213.041 62.6295 215.437C64.2743 217.834 66.6265 219.658 69.3582 220.655C65.8099 262.363 48.9972 301.841 21.3798 333.314C19.2146 332.182 16.7904 331.637 14.3486 331.732C11.9067 331.827 9.53244 332.559 7.46185 333.856C5.39127 335.153 3.69662 336.969 2.54661 339.123C1.3966 341.278 0.831337 343.695 0.907003 346.136C0.982669 348.577 1.69667 350.955 2.97794 353.034C4.2592 355.113 6.06304 356.821 8.20998 357.987C10.3569 359.153 12.7721 359.737 15.2151 359.681C17.6581 359.625 20.0439 358.931 22.1348 357.667L71.1199 406.613L75.8714 401.876L26.9065 352.949C28.2254 350.769 28.9226 348.27 28.9226 345.722C28.9226 343.174 28.2254 340.675 26.9065 338.495C55.7019 305.771 73.2283 264.677 76.9083 221.258C79.5199 220.745 81.9305 219.498 83.8565 217.662C85.7826 215.827 87.1439 213.48 87.7804 210.898H156.99V204.199H87.7402Z" fill="#ECEEF0"/>
<defs>
<radialGradient id="paint0_radial" cx="0" cy="0" r="1" gradientUnits="userSpaceOnUse" gradientTransform="translate(78.8512 203.535) scale(153.972 153.851)">
<stop stop-color="#ECEEF0"/>
<stop offset="1" stop-color="#F6F6F7"/>
</radialGradient>
</defs>
</svg>
