<svg width="208" height="208" viewBox="0 0 208 208" fill="none" xmlns="http://www.w3.org/2000/svg">
<path d="M52.397 155.256C23.7927 126.674 23.7927 80.334 52.397 51.7521C81.0014 23.1703 127.378 23.1703 155.983 51.7521C184.587 80.334 184.587 126.674 155.983 155.256C127.378 183.838 81.0014 183.838 52.397 155.256Z" fill="url(#paint0_radial)"/>
<path d="M44.7915 104.939C44.7915 116.93 48.3501 128.652 55.0174 138.621C61.6846 148.591 71.1609 156.362 82.248 160.95C93.335 165.538 105.535 166.738 117.304 164.398C129.074 162.058 139.885 156.283 148.37 147.804C156.855 139.324 162.632 128.521 164.972 116.76C167.312 104.999 166.109 92.8095 161.515 81.732C156.922 70.6544 149.144 61.1868 139.165 54.5265C129.186 47.8661 117.454 44.3122 105.454 44.3142C89.3644 44.3169 73.9346 50.7053 62.5585 62.0744C51.1823 73.4435 44.7915 88.8621 44.7915 104.939Z" fill="white"/>
<path d="M55.9605 140.615C47.1638 128.706 43.0545 113.977 44.4143 99.2296C46.4297 83.4621 54.5558 69.1113 67.0438 59.2657C79.5318 49.4202 95.3833 44.867 111.187 46.5861C126.99 48.3053 141.482 56.1593 151.543 68.4578C161.605 80.7563 166.432 96.5162 164.985 112.346C163.443 124.365 158.335 135.649 150.319 144.743C142.304 153.837 131.749 160.324 120.015 163.366C108.282 166.408 95.9088 165.867 84.4915 161.812C73.0742 157.756 63.1366 150.373 55.9605 140.615Z" fill="url(#paint1_linear)"/>
<path d="M44.7933 104.939C44.7669 90.1339 50.1877 75.8356 60.0244 64.7639C70.9936 53.2594 86.0446 46.518 101.938 45.9905C117.832 45.463 133.297 51.1916 145.006 61.9435C156.715 72.6953 163.732 87.6108 164.545 103.48C165.359 119.349 159.905 134.903 149.357 146.794C140.991 155.56 130.188 161.621 118.342 164.194C106.497 166.767 94.1506 165.735 82.8973 161.231C71.6441 156.726 61.9996 148.956 55.2078 138.922C48.416 128.889 44.7886 117.052 44.7933 104.939Z" fill="url(#paint2_radial)" stroke="white" stroke-width="0.17" stroke-miterlimit="10"/>
<path d="M123.446 93.6865C123.446 104.994 114.279 114.16 102.972 114.16C91.6646 114.16 82.498 104.994 82.498 93.6865C82.498 82.3789 91.6646 73.2124 102.972 73.2124C114.279 73.2124 123.446 82.3789 123.446 93.6865Z" fill="white"/>
<path d="M114.486 93.6865C114.486 100.045 109.331 105.201 102.971 105.201C96.6123 105.201 91.457 100.045 91.457 93.6865C91.457 87.3271 96.6123 82.1719 102.971 82.1719C109.331 82.1719 114.486 87.3271 114.486 93.6865Z" fill="#F6838D"/>
<path d="M107.45 93.6865C107.45 96.1592 105.445 98.1641 102.972 98.1641C100.499 98.1641 98.4941 96.1592 98.4941 93.6865C98.4941 91.2134 100.499 89.2085 102.972 89.2085C105.445 89.2085 107.45 91.2134 107.45 93.6865Z" fill="white"/>
<path d="M120.165 78.4282C120.165 80.3623 118.596 81.9302 116.662 81.9302C114.728 81.9302 113.16 80.3623 113.16 78.4282C113.16 76.4941 114.728 74.9263 116.662 74.9263C118.596 74.9263 120.165 76.4941 120.165 78.4282Z" fill="#FFD89E"/>
<path d="M92.7812 108.944C92.7812 110.878 91.2134 112.446 89.2793 112.446C87.3452 112.446 85.7773 110.878 85.7773 108.944C85.7773 107.01 87.3452 105.442 89.2793 105.442C91.2134 105.442 92.7812 107.01 92.7812 108.944Z" fill="#D8EC84"/>
<path d="M122.255 116.584C120.475 116.584 119.032 118.028 119.032 119.808V117.244C119.032 115.464 117.588 114.021 115.808 114.021C114.027 114.021 112.584 115.464 112.584 117.244C112.584 115.464 111.14 114.021 109.36 114.021C107.58 114.021 106.137 115.464 106.137 117.244V99.7759C106.137 97.9956 104.693 96.5522 102.912 96.5522C101.132 96.5522 99.6888 97.9956 99.6888 99.7759V128.473L95.7991 122.091C94.8426 120.522 92.8089 120.003 91.2176 120.921C89.6829 121.808 89.0921 123.728 89.8626 125.324L94.5281 134.749H125.479V119.808C125.479 118.028 124.035 116.584 122.255 116.584Z" fill="#FFDDCF"/>
<path d="M92.6406 112.305C94.4937 110.452 94.4937 107.437 92.6406 105.583C91.7427 104.686 90.5493 104.191 89.2798 104.191C88.5459 104.191 87.8379 104.357 87.1978 104.67C84.9404 101.441 83.7515 97.6616 83.7515 93.6865C83.7515 83.5132 91.6987 75.0854 101.844 74.4995C102.534 74.4595 103.06 73.8682 103.021 73.1787C102.98 72.4888 102.389 71.9639 101.7 72.0019C90.2324 72.6645 81.25 82.1894 81.25 93.6865C81.25 98.2734 82.6519 102.63 85.3096 106.331C84.0952 108.175 84.2983 110.685 85.9189 112.305C86.8169 113.203 88.0103 113.697 89.2798 113.697C90.5493 113.697 91.7427 113.203 92.6406 112.305ZM87.6875 107.353C88.1265 106.914 88.7031 106.694 89.2798 106.694C89.856 106.694 90.4326 106.914 90.8716 107.353C91.7495 108.23 91.7495 109.659 90.8716 110.536C89.9937 111.414 88.5654 111.414 87.6875 110.536C86.8101 109.659 86.8101 108.23 87.6875 107.353Z" fill="black"/>
<path d="M122.255 115.333C121.465 115.333 120.722 115.539 120.076 115.901C119.505 114.088 117.807 112.769 115.808 112.769C114.543 112.769 113.399 113.297 112.584 114.144C112.358 113.91 112.107 113.7 111.835 113.519C114.718 112.228 117.312 110.311 119.411 107.883C122.816 103.943 124.692 98.9008 124.692 93.6864C124.692 89.1019 123.29 84.7426 120.633 81.0414C121.847 79.1976 121.644 76.6884 120.023 75.0673C118.17 73.2142 115.155 73.2142 113.301 75.0673C111.448 76.9203 111.448 79.9359 113.301 81.7889C114.228 82.7157 115.445 83.1791 116.662 83.1791C117.375 83.1791 118.088 83.0184 118.742 82.7001C121.001 85.9305 122.19 89.7128 122.19 93.6864C122.19 102.734 116.048 110.382 107.388 112.397V105.664C112.347 103.833 115.736 99.0389 115.736 93.6864C115.736 86.6478 110.01 80.9213 102.971 80.9213C95.932 80.9213 90.2054 86.6473 90.2054 93.6864C90.2054 96.4642 91.0828 99.1058 92.742 101.325C94.1893 103.26 96.1917 104.763 98.4383 105.62V124.018L96.867 121.44C95.5467 119.273 92.7903 118.57 90.5926 119.838C88.5023 121.045 87.6868 123.694 88.742 125.878L93.4075 135.304C93.6258 135.745 94.0692 136 94.5296 136C94.7161 136 94.9051 135.958 95.0833 135.87C95.7025 135.563 95.9559 134.813 95.6497 134.194L90.9891 124.78C90.5062 123.779 90.8812 122.56 91.8436 122.005C92.8382 121.431 94.1336 121.761 94.7313 122.742L98.6209 129.124C98.9129 129.603 99.4876 129.829 100.027 129.678C100.567 129.526 100.94 129.034 100.94 128.473V99.7758C100.94 98.6879 101.825 97.8031 102.913 97.8031C104.001 97.8031 104.886 98.6879 104.886 99.7758V104.723C104.886 104.732 104.886 104.741 104.886 104.75V123.53C104.886 124.221 105.446 124.781 106.137 124.781C106.827 124.781 107.388 124.221 107.388 123.53V117.244C107.388 116.156 108.272 115.271 109.36 115.271C110.448 115.271 111.333 116.156 111.333 117.244V123.985C111.333 124.676 111.893 125.236 112.584 125.236C113.275 125.236 113.835 124.676 113.835 123.985V117.244C113.835 116.156 114.72 115.271 115.808 115.271C116.896 115.271 117.781 116.156 117.781 117.244V124.07C117.781 124.761 118.341 125.321 119.032 125.321C119.722 125.321 120.282 124.761 120.282 124.07V119.808C120.282 118.72 121.167 117.835 122.255 117.835C123.343 117.835 124.228 118.72 124.228 119.808V134.748C124.228 135.439 124.788 135.999 125.479 135.999C126.17 135.999 126.73 135.439 126.73 134.748V119.808C126.73 117.341 124.722 115.333 122.255 115.333ZM115.07 80.0204C114.192 79.1425 114.192 77.7142 115.07 76.8363C115.509 76.3973 116.085 76.1781 116.662 76.1781C117.239 76.1781 117.815 76.3973 118.254 76.8363C119.132 77.7142 119.132 79.1425 118.254 80.0204C117.376 80.8978 115.948 80.8978 115.07 80.0204ZM92.7069 93.6864C92.7069 88.0267 97.3113 83.4222 102.971 83.4222C108.63 83.4222 113.235 88.0267 113.235 93.6864C113.235 97.6718 110.899 101.273 107.388 102.953V99.7758C107.388 99.0736 107.224 98.4086 106.934 97.8163C108.044 96.7469 108.7 95.2562 108.7 93.6864C108.7 90.5272 106.13 87.9574 102.971 87.9574C99.8118 87.9574 97.242 90.5272 97.242 93.6864C97.242 95.2103 97.8626 96.6747 98.9295 97.7421C98.6165 98.3524 98.4383 99.0438 98.4383 99.7758V102.9C94.9554 101.198 92.7069 97.6683 92.7069 93.6864ZM100.643 95.9218C100.067 95.3251 99.7435 94.5345 99.7435 93.6864C99.7435 91.9066 101.191 90.4589 102.971 90.4589C104.75 90.4589 106.198 91.9066 106.198 93.6864C106.198 94.5468 105.848 95.3661 105.254 95.9647C104.572 95.5443 103.77 95.3016 102.913 95.3016C102.085 95.3016 101.309 95.5282 100.643 95.9218Z" fill="black"/>
<path d="M107.401 74.9473C107.73 74.9473 108.053 74.8135 108.285 74.5806C108.518 74.3481 108.652 74.0254 108.652 73.6963C108.652 73.3677 108.518 73.0449 108.285 72.812C108.053 72.5796 107.73 72.4458 107.401 72.4458C107.072 72.4458 106.75 72.5796 106.517 72.812C106.284 73.0449 106.15 73.3677 106.15 73.6963C106.15 74.0254 106.284 74.3481 106.517 74.5806C106.75 74.8135 107.072 74.9473 107.401 74.9473Z" fill="black"/>
<path d="M50.9218 78.3535C44.8436 92.03 44.0424 107.469 48.6723 121.701C53.3022 135.932 63.0361 147.95 76.0007 155.441C88.9654 162.932 104.245 165.367 118.898 162.278C133.552 159.188 146.544 150.793 155.375 138.707C153.591 141.553 151.57 144.245 149.335 146.754C139.334 157.186 125.933 163.708 111.547 165.144C97.1607 166.581 82.7339 162.838 70.8645 154.589C58.9951 146.34 50.4632 134.128 46.8052 120.151C43.1472 106.175 44.6035 91.3524 50.9118 78.3535H50.9218Z" fill="#D8D9DD"/>
<defs>
<radialGradient id="paint0_radial" cx="0" cy="0" r="1" gradientUnits="userSpaceOnUse" gradientTransform="translate(-93558.5 14193.7) rotate(-180) scale(10658.8 10650.4)">
<stop offset="0.04" stop-color="#E8F2FE"/>
<stop offset="0.520833" stop-color="#E8F2FE"/>
<stop offset="1" stop-color="#006FED"/>
</radialGradient>
<linearGradient id="paint1_linear" x1="152.936" y1="70.2942" x2="56.4613" y2="141.295" gradientUnits="userSpaceOnUse">
<stop stop-color="white"/>
<stop offset="0.31" stop-color="#FBFBFB"/>
<stop offset="0.62" stop-color="#EFEFEF"/>
<stop offset="0.93" stop-color="#DBDBDB"/>
<stop offset="1" stop-color="#D5D5D5"/>
</linearGradient>
<radialGradient id="paint2_radial" cx="0" cy="0" r="1" gradientUnits="userSpaceOnUse" gradientTransform="translate(155.381 48.3352) rotate(180) scale(175.186 175.05)">
<stop offset="0.04" stop-color="#E8F2FE"/>
<stop offset="0.55" stop-color="#E8F2FE"/>
<stop offset="1" stop-color="white"/>
</radialGradient>
</defs>
</svg>
