<svg width="64" height="64" viewBox="0 0 64 64" fill="none" xmlns="http://www.w3.org/2000/svg">
<path d="M51.4458 21.6865C51.4458 32.9937 42.2793 42.1602 30.9717 42.1602C19.6646 42.1602 10.498 32.9937 10.498 21.6865C10.498 10.3789 19.6646 1.2124 30.9717 1.2124C42.2793 1.2124 51.4458 10.3789 51.4458 21.6865Z" fill="white"/>
<path d="M42.4858 21.6865C42.4858 28.0454 37.3306 33.2007 30.9712 33.2007C24.6123 33.2007 19.457 28.0454 19.457 21.6865C19.457 15.3271 24.6123 10.1719 30.9712 10.1719C37.3306 10.1719 42.4858 15.3271 42.4858 21.6865Z" fill="#F6838D"/>
<path d="M35.4497 21.6865C35.4497 24.1592 33.4448 26.1641 30.9717 26.1641C28.499 26.1641 26.4941 24.1592 26.4941 21.6865C26.4941 19.2134 28.499 17.2085 30.9717 17.2085C33.4448 17.2085 35.4497 19.2134 35.4497 21.6865Z" fill="white"/>
<path d="M48.1646 6.42822C48.1646 8.3623 46.5962 9.93018 44.6621 9.93018C42.728 9.93018 41.1602 8.3623 41.1602 6.42822C41.1602 4.49414 42.728 2.92627 44.6621 2.92627C46.5962 2.92627 48.1646 4.49414 48.1646 6.42822Z" fill="#FFD89E"/>
<path d="M20.7812 36.9443C20.7812 38.8784 19.2134 40.4463 17.2793 40.4463C15.3452 40.4463 13.7773 38.8784 13.7773 36.9443C13.7773 35.0103 15.3452 33.4424 17.2793 33.4424C19.2134 33.4424 20.7812 35.0103 20.7812 36.9443Z" fill="#D8EC84"/>
<path d="M50.2552 44.5845C48.4749 44.5845 47.0316 46.0278 47.0316 47.8081V45.2441C47.0316 43.4639 45.5882 42.0205 43.8079 42.0205C42.0272 42.0205 40.5838 43.4639 40.5838 45.2441C40.5838 43.4639 39.1404 42.0205 37.3602 42.0205C35.5799 42.0205 34.1365 43.4639 34.1365 45.2441V27.7759C34.1365 25.9956 32.6932 24.5522 30.9124 24.5522C29.1321 24.5522 27.6888 25.9956 27.6888 27.7759V56.4731L23.7991 50.0908C22.8426 48.522 20.8089 48.0029 19.2176 48.9214C17.6829 49.8076 17.0921 51.7275 17.8626 53.3237L22.5281 62.749H53.4788V47.8081C53.4788 46.0278 52.0355 44.5845 50.2552 44.5845Z" fill="#FFDDCF"/>
<path d="M20.6406 40.3052C22.4937 38.4521 22.4937 35.4365 20.6406 33.5835C19.7427 32.686 18.5493 32.1914 17.2798 32.1914C16.5459 32.1914 15.8379 32.3574 15.1978 32.6704C12.9404 29.4409 11.7515 25.6616 11.7515 21.6865C11.7515 11.5132 19.6987 3.08544 29.8438 2.49951C30.5337 2.45947 31.0601 1.86816 31.0205 1.17871C30.9805 0.488764 30.3892 -0.0361378 29.6997 0.00194805C18.2324 0.664546 9.25 10.1894 9.25 21.6865C9.25 26.2734 10.6519 30.6304 13.3096 34.3311C12.0952 36.1748 12.2983 38.6846 13.9189 40.3052C14.8169 41.2026 16.0103 41.6973 17.2798 41.6973C18.5493 41.6973 19.7427 41.2026 20.6406 40.3052ZM15.6875 35.3525C16.1265 34.9136 16.7031 34.6938 17.2798 34.6938C17.856 34.6938 18.4326 34.9136 18.8716 35.3525C19.7495 36.23 19.7495 37.6587 18.8716 38.5361C17.9937 39.4141 16.5654 39.4141 15.6875 38.5361C14.8101 37.6587 14.8101 36.2305 15.6875 35.3525Z" fill="black"/>
<path d="M50.2552 43.3334C49.4647 43.3334 48.7215 43.5394 48.0765 43.9008C47.5047 42.0878 45.8074 40.7694 43.8079 40.7694C42.5428 40.7694 41.3987 41.2972 40.5843 42.1439C40.3582 41.9095 40.1068 41.7001 39.8348 41.5189C42.7176 40.2284 45.3118 38.3114 47.411 35.8832C50.8162 31.9427 52.6917 26.9008 52.6917 21.6864C52.6917 17.1019 51.2899 12.7426 48.6326 9.04138C49.847 7.19763 49.6439 4.68835 48.0228 3.06726C46.1697 1.21423 43.1546 1.21423 41.3011 3.06726C39.4481 4.92029 39.4481 7.93591 41.3011 9.78894C42.2278 10.7157 43.4446 11.1791 44.6619 11.1791C45.3753 11.1791 46.0877 11.0184 46.7425 10.7001C49.0008 13.9305 50.1903 17.7128 50.1903 21.6864C50.1903 30.7343 44.0482 38.3822 35.3875 40.3969V33.6644C40.3475 31.8334 43.7362 27.0389 43.7362 21.6864C43.7362 14.6478 38.0096 8.92126 30.9705 8.92126C23.932 8.92126 18.2054 14.6473 18.2054 21.6864C18.2054 24.4642 19.0828 27.1058 20.742 29.3246C22.1893 31.2596 24.1917 32.7626 26.4383 33.62V52.0179L24.867 49.4403C23.5467 47.2728 20.7903 46.5697 18.5926 47.8383C16.5023 49.0453 15.6868 51.6937 16.742 53.8783L21.4075 63.3036C21.6258 63.7445 22.0692 63.9999 22.5296 63.9999C22.7161 63.9999 22.9051 63.9584 23.0833 63.87C23.7025 63.5634 23.9559 62.8129 23.6497 62.1942L18.9891 52.7797C18.5062 51.7792 18.8812 50.5604 19.8436 50.0048C20.8382 49.4305 22.1336 49.7611 22.7313 50.7421L26.6209 57.1244C26.9129 57.6029 27.4876 57.829 28.0272 57.6776C28.5667 57.5262 28.9398 57.0341 28.9398 56.473V27.7758C28.9398 26.6879 29.825 25.8031 30.9129 25.8031C32.0008 25.8031 32.8861 26.6879 32.8861 27.7758V32.723C32.8856 32.7318 32.8861 32.7406 32.8861 32.7499V51.5302C32.8861 52.2211 33.4456 52.7806 34.1365 52.7806C34.8275 52.7806 35.3875 52.2211 35.3875 51.5302V45.244C35.3875 44.1561 36.2723 43.2709 37.3602 43.2709C38.4481 43.2709 39.3333 44.1561 39.3333 45.244V51.9852C39.3333 52.6761 39.8934 53.2362 40.5838 53.2362C41.2747 53.2362 41.8348 52.6761 41.8348 51.9852V45.244C41.8348 44.1561 42.72 43.2709 43.8079 43.2709C44.8958 43.2709 45.7806 44.1561 45.7806 45.244V52.0697C45.7806 52.7606 46.3406 53.3207 47.0316 53.3207C47.7225 53.3207 48.2821 52.7606 48.2821 52.0697V47.808C48.2821 46.7201 49.1673 45.8348 50.2552 45.8348C51.3431 45.8348 52.2283 46.7201 52.2283 47.808V62.7484C52.2283 63.4393 52.7879 63.9994 53.4788 63.9994C54.1697 63.9994 54.7298 63.4393 54.7298 62.7484V47.808C54.7298 45.3407 52.7225 43.3334 50.2552 43.3334ZM43.0701 8.02039C42.1922 7.14246 42.1922 5.71423 43.0701 4.8363C43.5091 4.39734 44.0853 4.1781 44.6619 4.1781C45.2386 4.1781 45.8153 4.39734 46.2542 4.8363C47.1317 5.71423 47.1317 7.14246 46.2542 8.02039C45.3763 8.89783 43.9476 8.89783 43.0701 8.02039ZM20.7069 21.6864C20.7069 16.0267 25.3113 11.4222 30.971 11.4222C36.6302 11.4222 41.2347 16.0267 41.2347 21.6864C41.2347 25.6718 38.8992 29.2728 35.3875 30.953V27.7758C35.3875 27.0736 35.2244 26.4086 34.9344 25.8163C36.0438 24.7469 36.6995 23.2562 36.6995 21.6864C36.6995 18.5272 34.1297 15.9574 30.971 15.9574C27.8118 15.9574 25.242 18.5272 25.242 21.6864C25.242 23.2103 25.8626 24.6747 26.9295 25.7421C26.6165 26.3524 26.4383 27.0438 26.4383 27.7758V30.9003C22.9554 29.1981 20.7069 25.6683 20.7069 21.6864ZM28.6434 23.9218C28.0667 23.3251 27.7435 22.5345 27.7435 21.6864C27.7435 19.9066 29.1912 18.4589 30.9705 18.4589C32.7503 18.4589 34.1981 19.9066 34.1981 21.6864C34.1981 22.5468 33.8485 23.3661 33.2537 23.9647C32.5721 23.5443 31.7703 23.3016 30.9129 23.3016C30.0848 23.3016 29.3094 23.5282 28.6434 23.9218Z" fill="black"/>
<path d="M35.4009 2.94727C35.73 2.94727 36.0527 2.81348 36.2852 2.58057C36.5181 2.34814 36.6519 2.02539 36.6519 1.69629C36.6519 1.36768 36.5181 1.04492 36.2852 0.812012C36.0527 0.57959 35.73 0.445801 35.4009 0.445801C35.0723 0.445801 34.7495 0.57959 34.5171 0.812012C34.2842 1.04492 34.1504 1.36768 34.1504 1.69629C34.1504 2.02539 34.2842 2.34814 34.5171 2.58057C34.7495 2.81348 35.0723 2.94727 35.4009 2.94727Z" fill="black"/>
</svg>
